<mxfile host="drawio-plugin" modified="2024-12-18T12:53:21.063Z" agent="Mozilla/5.0 (Macintosh; Intel Mac OS X 10_15_7) AppleWebKit/537.36 (KHTML, like Gecko) Chrome/122.0.0.0 Safari/537.36" version="22.1.22" etag="9yDkd5-iZE063OdCejpB" type="embed">
  <diagram id="WwPD1SBs87iILtZgc4X4" name="Page-1">
    <mxGraphModel dx="1267" dy="610" grid="1" gridSize="10" guides="1" tooltips="1" connect="1" arrows="1" fold="1" page="1" pageScale="1" pageWidth="850" pageHeight="1100" math="0" shadow="0">
      <root>
        <mxCell id="0" />
        <mxCell id="1" parent="0" />
        <mxCell id="10" value="" style="shape=image;verticalLabelPosition=bottom;labelBackgroundColor=default;verticalAlign=top;aspect=fixed;imageAspect=0;image=data:image/png,iVBORw0KGgoAAAANSUhEUgAAAggAAAIPCAYAAAAW+SbbAAAAAXNSR0IArs4c6QAAAERlWElmTU0AKgAAAAgAAYdpAAQAAAABAAAAGgAAAAAAA6ABAAMAAAABAAEAAKACAAQAAAABAAACCKADAAQAAAABAAACDwAAAABvuG3KAABAAElEQVR4AeydB7zURPf+x4ZdbNgLdhF97fpaARUUEbtg7703VETECnbsDRHsCjYUsCAoFuxdFAuvKIK995r/fOf3n5jNzfbN3t27z/l8cjeZTCaTJ3d3zpw55zkzBFaMRAgIASEgBISAEBACEQRmjOxrVwgIASEgBISAEBACDgEpCPpHEAJCQAgIASEgBJogIAWhCSQqEAJCQAgIASEgBKQg6H9ACAgBISAEhIAQaILAzPGSZ5991lxyySXxYh0LASFQQQSGDx9ewdbUlBAQAkKg8gg0sSBMnTrV3H333ZW/k1oUAkLAfPLJJ/p+6f9ACAiBukCgiQXB91ozHI+EPoVA5RAYNmyY6dmzZ+UaVEtCQAgIgZQQaGJBSOk+alYICAEhIASEgBCoIwSkINTRy1JXhYAQEAJCQAhUCwEpCNVCWvcRAkJACAgBIVBHCEhBqKOXpa4KASEgBISAEKgWAlIQqoV0jvtsvPHGZosttkisMWnSJDPDDDPI8z0RHRUKASEgBIRAWghIQUgLWbUrBISAEBACQqCOEZCCUMcvT10XAkJACAgBIZAWAlIQ0kI2xXafeuops+mmm5p5553XzD333GajjTYy48aNC+/4999/m379+pm2bduaWWed1Sy//PLmsssuC8+zM//885srrrjCbLfddmaOOeYwP/zwQ8Z5HQgBISAEhEBjIyAFoc7e/88//2y22WYbs8Yaa5g33njDTJw40SkL3bp1M1999ZV7GpQD6LIvuOACM2XKFHPGGWeYU045xVxzzTXh07Zq1crceOONZuGFFza33XabmX322cNz2hECQkAICAEhkJVJUdDUJgKTJ092s/1ddtnFLLXUUq6T5557rtljjz3MPPPMY3766Sdz6aWXml69epkePXq483vuuaeZMGGCufjii81hhx3mymaeeWaDpeH666+vzQdVr4SAEBACQqBZEZAFoVnhL/7mK620kllxxRXN7rvvbvr3729eeeUVF+Ww6qqrGqwC77//vsHK0LFjx4zGN9lkE4Ny8eWXX4blRE9IhIAQEAJCQAgkISAFIQmVKpfNNNNM5q+//kq86++//+7KGfwRfAqefvpps+uuu5pBgwaZtdde2/ka3H777e78p59+6j5REAiP9BsKBRJVEOabbz5Xpj9CQAgIASEgBOIISEGII9IMx4sssoj56KOPEu/8wQcfuPIll1wyPN+mTRtz4YUXmg8//NDAk9ClSxfDMsKrr77qlhmo+OijjzplAIUgumGB8ILyIBECQkAICAEhkISAFIQkVKpcttVWWzlnwmgkAl0IgsBFGiy99NLOKZGy6dOnm8cff5xdJwz41113ncGnAKfF1Vdf3VkZ3nvvPbPgggs22bBWSISAEBACQkAI5ENATor5EKrC+b322stFFOywww7m1FNPdcsGRCTgQPjMM8+YkSNHuqUCuvL222+brl27OkdEohlQIu644w7Xy//+978u7BFHxDPPPNMsvvjihrLPPvvM9OnTx2B5GDp0qKurP0JACAgBISAEciEgBSEXOlU6x+x/zJgxZsCAAU5RIEwRfoMNN9zQKQjrrbde2BMomW+44QanIJx88skGi0D79u3NiBEjjF8+uOiii0zr1q3Nsccea6ZNm2YWWGAB07lzZ+fUGDakHSEgBISAEBACORCYwc5Ag+j5YcOGmZ49e7qZabRc+0JACJSPgL5f5WOoFoSAEKgOAvJBqA7OuosQEAJCQAgIgbpCQApCXb0udVYICAEhIASEQHUQkIJQHZx1FyEgBISAEBACdYWAFIS6el3qrBAQAkJACAiB6iAgBaE6OOsuQkAICAEhIATqCgEpCHX1utRZISAEhIAQEALVQUA8CNXBWXcRAlVB4Nlnn3WpvqtyM91ECORBYIMNNjDHH398nlo6XasIyIJQq29G/RICJSAwdepUc/fdd5dwpS4RApVF4LnnnjMorJL6RSCrBWGXXXap36dSz4VAjSLwySefVKVnw4cPr8p9dBMhkA0BjSHZkKmfclkQ6uddqadCQAgIASEgBKqGQFYLgmYgVXsHulEDIeCplhvokfWoQkAI1CkCsiDU6YtTt4WAEBACQkAIpImAFIQ00VXbQkAICAEhIATqFAEpCHX64tRtIdAICJBs9qabbjKbbLKJS2E+xxxzmBVWWMEcc8wxhogNiRAQAukhIAUhPWzVshAQAmUisPfee5v999/ftGvXztx+++1m1KhR5qijjjIjR440a665pnnzzTeLusNVV11l9t1336KuUWUh0KgIVE1BWHDBBc0555yTE+cjjzzSrLrqqjnr5Dp52mmnmdlmmy2ssv3225sZZpghMS78s88+c+eeeOIJV3/PPfd0x9TPtl177bVh29oRAkIgXQRuvPFGc+utt5rBgweb66+/3nTr1s106tTJHH300ebVV181Sy21lBkxYkRRnXj55ZeLqq/KQqCREaiagjBo0CCz4447Vh1rFIZevXqZ33//Pee9zzzzTEfqAbEH2xJLLGG23nrrjLLm6H/OTuukEGjBCFx22WUGJr6kGf8888xjXnnlFcOkwAtLDj169DALL7ywmyistNJKBouBl44dO5ohQ4a4JQsmAa+99pr5+++/Tb9+/Uzbtm3NrLPOapZffnnDfaMybdo0s8022xiWNxZffHEzcOBAd1/a98LvC78zSy65pGnVqpVZeumlTe/evc2ff/7pq5j555/fXHHFFWa77bZzba222mpmq622Cs/7nZ122smsv/76/lCfQqDZEMga5ljpHu2www6VbrKg9rAijB8/3tHP8oXNJsstt5xh88KPRZs2bcx///tfX6RPISAEqoTAd99955YPzj333ILvePjhhxssg2PGjHGD8Z133mmwSmJp6N69u3n00UedL8OKK65omLDwHe/bt69TCLBS4OcwduxYc9BBB7lB/rDDDnP3xro4ZcoUd46Jw0knnWReeukld73vHHWxZgwdOtSsu+66ZsKECWa//fYzv/32m1MoqIfigFWE87fddpv59NNPnTXkiy++MAsttJBr6tdffzWPPPKIGTBggG9an0Kg2RComgUhvsQwffp0N0OfffbZncYfnQlkQ+OUU04xM89cnE7Dl5KlDb5w/HhIhIAQqH0E+K7ioMhMvFB58MEHzYsvvmj+85//OAvgiSee6JQDBlyE3wIsBzPNNJOzMPz888/m0ksvNdTD8rDooosalAEG9osvvthdA/PlE3YZEgsj1gwsBAzyKDBevvrqK3PzzTc7xQFFZJFFFnHW0kMOOcQpIn/88Yerym8XFguWS5gwcS/6dNddd/mmnBKDNWLXXXcNy7QjBJoLgaopCPEHxPnonXfeMY8//rj7UqNpp8EhzxcSEyWez3369Il3Q8dCQAjUIAKzzDKL69U///xTVu9YEmAAT5L333/foCSw9BAVLAmTJ082X375pfuN4hwOkV6Y1Gy66ab+0Lzxxhtu4EeBiAqWAtrnPl423nhjv2tYJsHCiTXBy3333We23HJLZ730ZfoUAs2FQLMoCKzpYcrDaoAJHxPghRdeaOacc86cOJx33nnmr7/+ylkn6eSMM87ozHyY/1i3lAgBIVDbCDCb53sbHVzz9Rjrwbbbbuv8BBjEUTJyJQvCxI+gIEQdk3fffXdXjoLw008/uf255prLffo/LD96+eGHH9zufPPN54vc57zzzus+f/zxx7A8XofJy/PPP2/+97//ud82rCB77bVXWF87QqA5EWgWBQHLAYIp0Atf0HXWWccfVvwTjR9t/bjjjqt422pQCAiByiKAQyAz8nvuucctNeRr/ZtvvnEzb5QKlgRYAsBBMJcPETN4BN8ElIH4hhMiigbyyy+/uE//5+uvv/a7jp+Bg2+//TYsY4c+Ia1bt3af/OF3LipbbLGFWw7BXwJfKfqMkiMRArWAQNkKwsMPP5yhfaMR5xOvUcctBtEvUr42SjmPlQJtPY2ljFL6o2uEgBDIjsCxxx5rJk6caM4///wmlRhIyRZIHYSwRwbo/v37u+VEHBAZoLk+m6y++urO0fC9994z+EjFN3wVWJpE3nrrrbAZlkOffPLJ8HiNNdZw1gocE6NCumN+03wb0XN+H4UGXwQUIbadd945VEp8HX0KgeZCoDiPv4Rerrfees6PwJ/CQSefeMUgrpV7jTvf9aWeX3bZZZ3XMF7I0S94qe3pOiEgBNJDgMHyiCOOcOGCKAA9e/Z0A+67775r4CRhqfKhhx5yHcCZkdk5M3Gu+eCDD5yygO8AEQg4PHIeE//rr7/ufAv4rSL6AAdEfBWwNuAcia8SSwgsSRLZhAJwxhlnuBBIog2IhkKZ8EKbODZedNFFziq61lprOSsGkRI4QOZzrGZShRLEMgNKgkQI1AoCZSsIxPayhleM+Phhvqh+WQFnQjRw2ktT8HuAuvWaa65J8zZqWwgIgQogcOWVV5oOHTq47+vBBx/snP6IJICjhMGXsEPE8xcw0GIpRDGAc4AQQnwKWM6EdRGSJdb4cUSEmZFBnVk+lggUjgUWWMB07tzZKRe++ygdBxxwgNlwww3NYostZk499VTnYPjCCy/4Ku5etEOIJPekjygaRF7lE34P4T2Ax6HY39J8beu8ECgHgbIVhFJujrbP+uJZZ51lmNWjlRNuRMhPLuHLxhe6FEdF3y7rjtz3hBNO8EX6FAJCoIYRYCmBLZ9AwcwWl6hvQNeuXZtENWAdYMslhDHyW+WlS5cuZplllvGH7rfrggsuMGzZhJDJJCEMkkgLrBksOUiEQK0g0Gz/jWjvrM3xhd1ss81cDPI+++yTwTyWFkgHHnhgxpc9rfuoXSEgBOofASYTKARYOD/++GNz9dVXm8cee8wtK5TzdEQ/sFyyxx57GAiSkpSbctrXtUKgXARmsGtzQbSRYcOGubW+WHG0ivaFgBAoEYG0v19pt1/iY9f1ZfhGEf2EQzZhjyxnsLxRbjgilM74Q+EsCflSOXloahFgb/UZPnx4LXZPfSoAgWZZYiigX6oiBISAEKgJBPCLwm+p0kLKajaJEKhVBJptiaFWAVG/hIAQEAJCQAgIAWOkIOi/QAgIASEgBISAEGiCgBSEJpCoQAgIASEgBISAEJCCUML/wOabb+4ci7JdCn88pCzRXPSQvFBGJrckgQaa89ENLnkiPY4//njz/fffN7kMR1LWRonpJgYbelrqs65JTHVUaB/ClyR5+umn3X2hqE2SNPqedB+VCQEhIASEQO0gIAWhhHcB8xkZ3KL0q9FmyM4Gp8Nuu+3miuGFf+CBB1wGuFzOTuSpJ+GM3xiwCX3iGsKs4pntyIi5//77m3bt2jnSl1GjRrn6I0eOdEQxEMOUK2n1vdx+6XohIASEgBBIFwFFMZSA70477eToXFEEBgwY0KQFOB5IuOJZIe+44w43w4fkCWpqaGAJlYoLiWE8s6Q/t9FGGzl6WJQB4rB9uljCom699VYzZMgQg8LipVOnTu4YRrYRI0aY1VZbzZ8q6TONvpfUEV1UFAI+xKyoi1RZCFQQAXJR5EqWVcFbqamUEKiaBWHhhRd2BCNnn322gQMdRsNtttnGfP755+GjYRbv0aOHoe5ss81moCCNmumpyDnoVyEvIZ0q1Ki0SQIoZuykZYXmlIHTCzTO/fr1M23btnXJWTwtqz+f9AlrYzYOdUz58MSjCMT5IqBfZYkhOmjD6c5zkR+eZ7rllluSbpm1bO2113bnokxsxFDDRhm9j28AbElrDa10uZJG38vtk64XAkJACAiB9BGomgWB9XQSrKAUkCiJpCg77rijoz32SsDhhx/uyseMGeNm33CgH3nkkWappZYy3bt3d2jQDnkU4EZ/6aWX3Jr+6aef7mbXKAgoC2y0xbo7iVRQDhhQBw8e7Nbrx44d6zjTWQaA3rQUYWBGCXnqqafc0oFvA6sCCtBWW23liiZNmmRQGvwzkrmN2T/UrvgbFCJkm0PAAcHsz/LBueee644L/QPJC8sWccm2FJFG3+P31nE6CIicJh1c1WrhCMiKVThWNVvTzoAz5K677oJZMaOsEgc2W1pgZ7wZTdlBNrCz6oyy+IEdFAObnS0sph1LzRwe2xzurr92LT4ss5nfXNmzzz4bWMtCYLNHBnZADs+zYxWDwGZqyygr5sD6AwSWmz2wCWTCy2yOiMAqB4FlWQvLLFNasPLKK4fHH374YWAVg8Dmfg/L2Nluu+0Cy6iWUfb7778H1oEwsBaPwCabCawlxJ1/55133PNZZSSjfq4D2ue95toef/zxjCbS6HvGDRrwIK3vl4cy7fb9ffQpBPIhYK2sAZukfhGo2hIDGhIZy6LCGn00kUr0nN8nDSuJTKICNakXlhiQpDI8/zH3//zzz02ypOH5P3nyZGMVDN9UUZ/M/vELYKZGshUEywSWEW/2Z2kDP4EoJSvLHPgRkPwlLmS3jEYxkNOeTHYsS5DW1idywYqCxJ0W4+3Fj8HI/qs22bCCxCWtvsfvo2MhIASEgBCoTQTKVhDgJ48Oan5wTHpcO5PPKOY6BiwveO/j3IdSgMMeA6G1AvjT4Sc+AF5oA0kqo+1PP/3UncdpL9pPUsAipSoIXEtyKcz9o0eP5tCwvICTYfv27d3xo48+aqZPn+7SvkbvzYCMYkGClqgQxUDee78RoYAShTJBmlkviy66qFMWUH7SkrT6nlZ/1a4QEAJCQAhUFoGyFQS88q1pOtwKyX+e9AgkRNlyyy3dwMc6OQPvn3/+WbYXLA57CAMeykB8Y3ZeqmANYIaPs+Jvv/1m7rvvvtB6QJtDrXPipptu6vwFWOf3G74T1L///vszbo1SBFeB34h6QMnp1atXRj2UIRwU77nnngwFK6NSmQdp9b3MbulyISAEhIAQqBICZSsIzHCZnfvNrreX1HVmzSw39O/f35H9YF5HaZg4cWJJ7fmLMKvTFo5+Cy64YJNtpplm8lVL+sSKgPkfK4L1GWjCfYClgixt0Y2ohM6dOycuM0Q7gYMleODUaH0WoqfMscce67A5//zzM8o5QLHCQYg6pYjnPkir76X0Sdc0LwJ8d84555ycncChuJyMhETdEL3kxZOH3X333b4o/GQpD6ucd7rF+TdqpUvax0laIgSEQOEIlK0gFH6r3DWXXnpp9wUncoHQx2eeecat3a+55ppmypQpJc+U5557bhepcOaZZ7oZOz8sr732munWrVvGbD/eu1xhjtG63lP35JNPbsJ9wEC9ww47RKuH+1xHtIZfAglPxHaI1iA88tBDDw19HahCmKV13jS9e/d26bnvvfde5wNBrnoUkHHjxhm/jBJrMu8h3Adp9j1vB1Sh5hAYNGiQizqqdsdQGLCgoXznEr7fLEf6bYklljBbb711eEw5UVMSISAECkegZhQEz03AbBnTPT8KZ511lmGgfvfdd4314i/8qWI1MdUT9siMGo4EQhCxfDA7L1fwq4A4CfKjfW3ooxfYD1leWGihhXxRxqeNKnDLKfgt5BIcE+F9AIM4KRPlw4YNc8smNprChZBeeumlxkZ5GBweWf4pRarR91L6pWuaDwEU3VVWWaXqHcCKgHJwySWX5Ly3jUhyy5EQ87BhNWzTpk1GWbbvYs6GdVIINDICdo07QxQmlQGHDoRARRFI+/uVVvs2Wiiw/CIhFtOmTQu6du0a2Bl+YAfeoE+fPi4c2TrohnXiO9bKFtglvXhxeEwbdmAPjwnNtZFCgeUvCawlMLDWtvAc+/Z3O4iH5voKhDDb5T9/qM9mQEBhjs0AeoVvWTMWhEZW0vTsQqDeECDE1/JxOOdkoo9wuk3yFSj3uQi3xTJHEjKrQJTbnK4XAkKgCASkIBQBlqoKASFgjLUeOH8XnAox58PweeGFF5p4GHMcq/POO89YMrF4cd5jltkGDhzoooKgEJcIASFQHQSkIFQHZ91FCLQYBLAcIFG/IKIG4onGKvnA+PPgj3DcccdVslm1JQSEQA4EpCDkAEenhEBLR6AYojOPBYnRkLjFoHXr1r5KKp9YKZ5//vlUljJS6bAaFQJ1jkDVkjXVOU7qvhBokQh4ojP/cCQayydeMfjll18yqsJbkqbY3Cfm6KOPNjZHiEv4lua91LYQEALGNIQFIU7yEj8u5h9h8803z8j7EL8W+mPMrT57I+d79uzpyq6//vp4dXfsCWGi5C7QTOOYdfzxxxtySsTFOqsawhHJKcHMDXZF6h9zzDGGtNlRoX3YGZPEJoNyffOEM/E6afQ9fg8dNx8CpRCdefZRQmm94Ew4YcIEf5jaJ34P5FYho6tECAiBdBFoCAWhkiQveFS/8cYb5q233kp8M/AakEaa1NOIZyVkDZUBPZuQhwFvcL8xYB911FHumi5dujRJzIQXObka2rVr56ieR40a5eqPHDnSQC6VLYVztvsnlafV96R7qax+EIDUDKpveEqgWYftFCIv/u9zSaHkY7nagDqd+5K+XSIEhEC6CDSEglBJkhdIkWBnzEZwRF4GEk4xM0NgJWSGD1kTMywIlZKEPAw4eflto402cuZUiI9eeOGFjNkZZFJkibTx4QarBKyQnTp1cvWhrMarfMSIEUm3Kaosjb4X1QFVrlkE+D/HYmW5EBwxFwnEoB2HgTNtOfDAAw3LDRIhIATSRaBqCgImyH79+jmWRFjOPHNi9PEWXnhhxxp4wgknmHnnndeQytmSsxicopiRzzXXXI4JcciQIeFlmNN79OhhuBZaVsyfUfM+FYtdUsg108GUD80xP5CY+aPCQM4SA1YGLyQ9on/QJdO3W265xZ8q6BPaZOSTTz4J6zN7YgYXvY8/yQyLUDBMseVKGn0vt0+6vnkQIOV69H8KttPHHnvM8R9Ajc6sHrpjGD+zSb4wR3I9wKfghWRmKMJxIX8KVjy+f+SASRIUcf5/JUJACJSOQNUUBJQD6FIvuOACl1vhjDPOcDTK0bVE1t05Jt0zGQ/JQ3D66ae7AZaZCjkUoBGGNpnETgj7H374octrwI/CQQcdZEga8+CDD5aOSp4rGZg//vhjQ9rmqGBVwMkLKmdk0qRJbvbPcgBCQhkUhLhi4U5m+UOSKQSrAILZn+WD7t27u+NC//z000+GZYv4hsUhSdLoe9J9VCYEhIAQEAI1ioAdrDIkDapWawEIrOdzYJWCjHsddthhAZSoXqxiEFgFwB8GNjWzo1O1a+1hmR3QXJlNvhKWxXfsYOpoX315nCY2fuzrFfr5zz//BNbEGdj8B+EllgAmsMpBcOKJJ4Zl1ts6sNktw2OryATWETGwmRnDMnaglLVZJzPKLP98YB0IA2tpCWy8eWAtMO68jUF3z2+VkYz6uQ5o3/775dzilLVp9D1XHxvlXBrfryh2abcfvZf2hUAuBES1nAud+jhXFQsCZnc8j+PmQDzwJ0+e7JINef2J9MxeWGJAksqSPPv9dVggMImmJUQbYBUYPnx4mGFx7NixhkyR3uzPkgrm0b322ivsBmbZjTfeODHNMx7h0SgGlmE6dOjgliVIJw2bHIKVBbFKivss9A8Y2n/JJlvcCkJ7afW90L6qnhAQAkJACDQ/AmUrCIUQrfiUxigI0UHQpyO2loIQCdb4vVAXSSpjsEPw+scpEKUARz8GUFK7pi04ZGHuHz16tLsVyws4GNpkNe740UcfNdOnT3f88dFnZkBGsfj1118zukgUA+Z+vxGhgKPjzTffbBZbbLGwLs5gKAsoXWlJWn1Pq79qVwgIASEgBCqPQNkKgidaIdyJDQe/uOA4hzDwoAzENx9XHb8u3zHELFtuuaUbMFlbZ8DGixp++LQFawAzfJwVcay67777QusB9x5qHaQIbcRfILrhW0F9HLCignIDV4HfiHpACSLtdVRQlnBQvOeee9z56LlK7afV90r1T+0IgXIQEJdJJnql8LBktqCjlopA2QpCIUQrmLcxmeNwR0RBfMMruRRhto2zYv/+/V3IFfdAaSAuuxqCFQHzP1YEctbHuQ+wkKy66qoZG1EJnTt3TlxmiPZ5vvnmc89FSKP1WYieMscee6x7xvPPPz+jnAMUpF122cXVaXKygALPfZBW3wvogqoIgVQRYBlQXCaZEBfLw5J5tY5aKgJlKwiFAANvgHVIdGFQzJxZqycigfh9vqylCoQtmO/vvPNOQ6jVM88849b8IQqaMmVKyTPsXGGO0b4yECM2z30T7gMGavgXkoTrxowZY/zSS1IdyojiIDwSEpo//vgjrEaY5RFHHGF69+7tWBrvvfdel13v6quvNigg48aNM375JryowB24D9Lse4HdUDUhkBoC4jJpCm0xPCxNr1ZJS0WgKgoC4GEyJySR2e+SSy7pQgGxPjD7L1U8lwKzbEz+mOOJx2aAJx47mm2u1Hvkug5Oen5sCK+MKjowJrK8sNBCCyVebqMK3LIIfgu5BF+DK6+80j3LgAEDMqpSPmzYMLdcY6MpzDbbbGMgVSIMFIdHln5KkWr0vZR+6ZrmRQCeERRQeEkI5WXZkP85FHMvhXCSlMJ1UgiHiu+D/8yl5IvLxKOU/zOJhyX/VarRYhCIB1soTCqOiI6FQOUQSPv7lVb7hCCvttpqgbVaBVb5dqG6hAtbpT8ExyoMgXXUDayCGlhlIbDZF11o7QMPPBDWoZ1VVlkluPjiiwPraBtYpd7VsdwhgVVOXZmNEAos6VlglwvddX369AksSVrAs1nH38ByibjzVmEJ243vWKteYJcu48XhMaHG9ke8ScixTQblwpUJW0Z8WLF1hnbHVkEKlllmmYBQ56gkhSr789Y/yd3LWjhdkV0WdeHOdnLkq+T9pH1CwglHjm+XX365a5/yqKTR92j7+fYV5pgPodo/jxk+Q9L6gcm4iQ6EQIMikPb3K632Gditc2zGW7NWs8AugWWUxQ/inCS0UwzXSaEcKvH75jsWl8m/CCUpN9l4WP69Kv+eFIT8GNV6jaotMbQYk4seRAg0KALrr79+xpOzROgZTTNORA6sQtCEkySJ1ySpDK6TYjhUIrfNu4vvkrhM/oWpUB6Wf6/QXiMgIAWhEd6ynlEIZEGgEB4Tfyk+N1FhkLUzoLCoUE6SJF6TpDLa9o68hXCohB0pcEdcJv8CVSgPy79XaK8REJCC0AhvWc8oBLIgUAiPSZZLM4rT4iRJi0OFzuPYLC6T/3uNhfKwZLx0HbR4BKqmIBSSUbGQOuW8EZIlRVkNk/avvfZad4sk8pBofUINEX4YYTek7biQIImIDR/uWMz9423pWAikgUAhPCaF3DctTpK0OFT8M4nLxCOR+ZmLhyWzpo5aMgIz19LDDRo0yOUeSKtPpKMl06MX+AgIhezbt68vysgzT757qI6TxOeJ4AcWpQKFgrwLMDt6IRPlL7/84jJUUlbs/X07+hQCtY5AlJMEjg5CfwlhjnKSoGAXK1EOFfwZYEmFR8VGNpg2bdo4xtKkNglzJLTaRiMknQ7L+A046qijSuIygaeEJRAmCNmEOvyuwWXCOn+rVq1c1SiXCcpVz549TevWrV1IM78n06ZNcyRs2drNVV4Il0k5fc91b51rWQjUlILgZ9ppQWzDhAybF5gX+ZHJRs3Mumi2c74NPuE12GOPPRwZ1FtvveVyR/BjYMOP3A8YceNIsfd3F+mPEKgDBDwnCeyeNrzRKQZXXHGF+eKLLxxpF4o4lOOlCAM9gyccKgycKOewkZbDoeL74blM4P+AR8RLIXwgpJaHy8RmcPWXNfn0XCb8jsBlQtp7L3CZsMRBinu4TEhoh8Vx6623dm0uscQSvmpRn9Xoe1EdUuX6RSAeZpFWmBQx06R7ttp6YGfdgR18AzvrDmzWxbAL1CHO2IvNWeDSJ9svSmCTMAWETNmZQWBZBX2VJp/54p+jFxBXbE2M0aJwPyn0JzyZsEPMtp1JBCeccIKLkbY/CAFx4bkk1/1zXadz9YtAWt8vj0ja7fv76FMI5ENAYY75EKr981W1INxwww0uX8HTTz/t0jyz/gcFM4yAScK5ESNGuFk4lMMTJkww++23n0t2NHDgwKRLKlqGDwFJoJIEhjHMn15Ys7vuuuucvwGZGi1JSdVyQvg+6FMICAEhIASEQKUQqKqCwHr9BRdc4Prerl07ZzKEupV1+miYExWsZcGt/5977rmme/fu7podd9zRPPfcc47yFVOmX89zJ///n/POO8+wVUI+/PBDRyeb1BZpm1lfjQr9ZJkESloUGNZMJUJACAgBISAE6hGBqkUxAM4mm2ySgREeyiQGmjx5ckY5B2Rbg4Od1MZRwZLAWh0EKmmLpZY1WBGStrhyQF8gdkGBIQcDCZSsASntLqp9ISAEhIAQEAKpIFC2glAM0Yr3/PdPYvnV3S4Dflx++OEHV4TpPirzzjuvO7QUrNHimtjHiYr+shTyyiuvhNELNdE5dUIICAEhIASEQBEIlL3E4IlW/D29x74/jn4yw46KVwyia/n+PF7LSJzKFd4BxJ93BzXwZ/To0W5JhJTTRCsQ4kioFRnvrHNlDfRQXRACQkAICAEhUDgCZVsQiiFagYo1KiwjEGrIgBqXNdZYw9jIBTcbj57DhI9yAEdBrch3331nCHki1tmHRR533HFOMTjkkENqpZvqhxCoKAJwiqy66qoVbbOUxipBsFaJNkrpe/SaYojUROQWRU77aSFQtgWh0I6xHj9lyhTnpAhnwHvvvWcuu+wyA2GITe3apBlM9UQsEANNDPVaa63lIgogHSHueOaZk7teKEFKkxsmFOA8iUKSJJC++OQ1EK0gxDl7Qbkhvpk4Z8iWSAwjEQJCoPIIlEKwdtVVVxkmLEOHDnUdKqWNSj9JsURqInKr9BtQe3EEkkfZeK0KHOOMCPsZkQEM+JbjwBGCQBaSTSBawVrA7BzCFUhEaAMloBqCI2TcSdLf1+aadyxtNte9ufXWW83w4cON5433dXDKJJQTawIMiwsvvLA/pU8hIAQqhEApBGsvv/xyxt1LaSOjgQocYEmNWlNF5FYBUNVEeQjEqRpEtBJHRMdCoHIIpP39Sqt9y2AYdO3aNbDWvsBG6QRWUQ8spXLQvn37EBxLaxxY35vA0i4HNgQ5sINdYNkJw/PsPPnkk4FVnAOr+AfWSTnYcMMNg7Fjx4Z1IEGzFkJHOsa9aP/6668Pz1vLYmAZSoNtt902sAmGAuvXFMQJ1qxPU3DxxRdnJWWzVj3Ci8LNUh03aaMQkjZwsJaI4Kyzzgqs8h9w327dugWWCjrsb3ynkYjcRJQUf/v1d1w1C0J5aoyuFgJCoDkRYImMcOTHH3/cLLbYYo5G/O677zas3XuBRphlw8GDB7uQZjvwO+sffCWQnuGUjNMuVjWsbgjLcHZQNVOnTnVtHXPMMeb+++83VikwK6+8srsfS3jck3q0deONNxrCnaE5JgthXFjegzZ53333NS+88IIjLeOe+APR50cffdT1jxTHLC0wU49LISRt3Ie8CTyTVXxcjgi4WqzCYFjCSFtE5JY2wmqfWP0MSWsGknETHQiBBkUg7e9XGu1/8sknbrZtmVDDt/bPP/8Eyy67bGhBsGHHgc1r4OjUw0p2xw60zpJAmc1P4trBiuDFcp0ENkdD8PvvvwfW2ddZHiwjqT/d5NOSjwWWnySjPG5B4NgynWbUYZZv/ZYCO6i6cus/FFilIawTbePLL78M7BJiYAnXwvPs9OrVyz0jfUXoi12CdPv+j1VKAqu8+MOyPrHARPsYbQwqeJvnwfUH3OObDbOOVg/3mdXbYS+wRG5hWbadXPfPdk20XBaEKBr1uV92FIN0LCEgBFo2AtCGI/gOecFJd5111vGHjrgMC0HHjh3DMnbww8HyYAddl6mVWfvuu+/uEi3BFUI7REJgGSDBmV1iaMJQmtGgPdh4443jRU2Ok0jZyOyYRMoWv7gYkjbvqOzbIKorHprtz1X6U0RulUZU7cURkIIQR0THQqCBECiE6MyTkpH5MCpRLhLSHiMoCAz6fkMZQFAQMOWTh2XXXXd1pn3ymbRt29bcfvvtro4nR4vTrruTkT9x8rTIqXA32jcKPSkbkUn5xPcjfp8kkrY4Jjy3nSvmu0WznBeRW7PAXtc3lYJQxOurlbjvaJeLiZ0+7bTTMkJKfSw1oaRJQj4M1ln50WP2hfhr/AAQ/yRsNSrjxo1za8ekrmWAgEiLNVsGCi/FPIO/pmfPnq5frFUnie9nuc9GOvDNN9/ckHujJYonOsO3gC0pQsgPgvHB1ZOWgYuP4GF9H2Ugvq200koOPvAkHTTRTJMmTTJdunQxvH/rKBi28fXXX+eEmv+5fAI3SVRYr0eSSNmi9dj3ykXcEuCf15+PX1fLx57Ije8LkRKeyO3jjz+u5W6rb82MQEMoCDgM4bBUq1JO/4idfvbZZ8ONgZh88tEyHKeyCT/sd9xxR+Lpe+65J9EJjPjraPvR/SgXxKhRo8wWW2zh6KfvvPNOY9ea3WyRGRaDrg81K/YZ+PEnvHTTTTc1N910U2LfKSzl2TCBEx/vNxziUGyYGTOAtjQphOjMD+4sAXghTwqU4l7IqwJO8JvguBjfCAuePn16Boa0SwZUOE0w67OEgUJaCWWsGFI2/wz+s55I2nyfc32KyC0XOjqXC4GGiGLwA1EuIJrzXDn9YzbA5oUfaWZpntHRl2f7ZD33oYcecj/sDI5RsQ5vxoahmUceeSRa7DJvFtI+gytt3nLLLW62TyMcsz6MmfmDDz4wmJmLfQYUGmZxWAeYAdPO8ssvn9FHDkp5Nrzio2vrtAOHBe3jod+pUyeKGkps2KLjA8E73zomumRkRAngN+CFmTme/yh7ZDHl/8OG+zneEv4fh1pCorffftvYUEkXYYAVCUXRK6fUx4RvnfKchQHlwYY4mueff94cfvjhbkkCgrVCBQsFmWOzkbKxfIDCg39FnB6ec6WQtBXSNxG5FYKS6tQKAlWzIECUZL2AXbgSP8I4JhFi5IWZDMRI1jvXDUCsAzJLIXSqrV2nZODzP9L+Gj4Jj+rRo4cjIYKRkR+WaIgRM78hQ4a4mSamyddee62gdpntMBOnrxAcYZ4vRUrpX/w+/KhkY46M1y32mJkeIWP+h9pfz487oVudO3f2RUV/gjc/tnGTMLNErBMsE5QiDDa8c/rN+0YBSZJKPRsDIf+vjWyOxU8AyxED/GabbWYWXXRRN5jzvfaCwsZgzlo3pGZbbbWV4Xvdv39/VwVrko2EcBuDP1aHBx980IwYMcK9RypBnLb//vsblvPImIpFipTwxSgHtAO5mo2+cFYJlBF+B6KkbEcffbT77UBZjVsbuJ7fIvpBOzzLqaee6pQdfo9qRTyRG2Ru8W2jjTZy3fREbii3fhnI959nRyGDyO3zzz/3xfoUAv8iEA++SCNMinsQ7mR/VAL7gxDYf2xHfmIH/WDkyJGuCxCNWNNeYL+QgU2VHECYAhkLZCr0yQ7YgR0IHFHL1VdfHXbbfvkDO+NzIVR2MA7s+qYL47FfDFeHkCQ7ywzsOmfw66+/BoRnFdKuNYEHVjEJrPk8+Oijj4ITTjjBkaFEiWHCTuTYKaV/8eYqRa7Cc4O5F0Kl7A+vw8wOtL7YfUJGQ6iYZYh0eNqBwJVzjZ3xB9bcnrhZxS5sx/8v2Th2h2F4Is8O7dsfrsRadsbn+mN/1N15O3gEyyyzjHuv0QtKfTY7aEWbCffbtWsXWIUxPC51x2NS6vX5rku7/Xz3r4Xz0ZDFWuhPo/ZBYY71/+arwoNQSnxzIXHV2eC32RMdy5s/H415LqTdQuK+fdulfObqXyntRa/JNbhmUxBQrOwsP4jGTtsZiFMckhSEYuKvYcGzfhFuULfLC8HBBx/slETi37NJrmc46aSTAkugE15qTcmu7+PHjw/L2PEKQrHPFlcQrHd+gIJmVerAWj0y7lHKQdoDeNrtl/LM1b5GCkK1EU++nxSEZFzqqbQqSwylxDdjPssXV/2vHSRzjzVQPPCTpJB2C4n7Tmq70LJc/Su0jUrWw7ERc6NfZsA0i+NhtiWAYuKvMdFaC4wz4x544IHOe50IA8zLU6ZMKeoxWHKCgW+vvfYKr2P5CV8DEmIlSbHPxv8qSyJ+w5QOMyBbLmfPpHurTAgIASFQzwiUrSAUEkft44qLiW8uJK4a4Fk/tLzszjEKfwHWtxncskkh7RYS952t/Xh5sf2LX1+tY+LViTSw2q0ZNmyYW9Nk7bUSYi0OzvEPHxTC4HBWI4SMtepihGvxDbGWkHAAZyDH651kWXYJKbG5Yp4NJ0pC7vyG3wGJwliPltQHAkwOSvUZqo8nVC+FQHUQKDuKwcdR++7GPYIp984xxcQ3+2sYFHBWigvOb8Ql42FOuNsTTzxhrOneOTNmy8AY7UuudplBI7nivl2FPH9K6V+eJlM7DX8BnPcoVygIxKaXKygb1ufDEOIWFQZhHMdwUCtGcE7kXUedULne+pm4aAs4/HfbbbcmTRbzbCiZhLlJhIAQEAKNjkDZFoRC4qhLiW/GBE3kQq64amZ5zETxksbDmvoMyhMnTsz6XgtpF894JFfcd9YbRE6U0r/I5VXdteu2jrQGEz4UuLvssktZ92fWjRJ3ySWXNGkHxYG4d8LfChXPfYA1gIiC6EaoJNEW2ZYZKv1shfZZ9YSAEBAC9YxA2QpCIQ8fjW8mmxpr/MwGWXIgI1uSROOqmRkSdkeIIhndPOkR8dmYmDGNE6bzzDPPuPVpLA6sbzMQIQxUPuYZRkAfr52rXawQxH1bb32ncBx66KEZcd9JfY6XldK/OHsbbaYZ5hjtM7NvuAuYpRPamU2wrDz33HOJG3HriE2F67gOevfubY4//nhDZj8UDxu1YnbYYQd3LecKFfwjCKnj2iRBoRkzZozxS0jxOoU+W/w6HQsBISAEGhYBO4hmSFpe0ORXt/G2LlSQUDs82m3cdHhvMqPhZR8V8svbuOPADrQuExuhkIQrkpveC+F4XEvueDuoBy+99FJgaUUDq5QEdpbpqnGMZzObJf0JCmkX73hCHekred/79u3rct3T72KklP7F2087zNHfj0x3VmkLLD+FL0oMc7RfFufVn/RJFjwvhJQSxUBEhLUWuEx9vEs7yAeWatlXa/KZFMVAJIolKWpS1xdYxSqw/icu8oIyH8Xgzxf6bPEoBn99pT7T+n75/qXdvr+PPoVAPgQUxZAPodo/PwNdjGpHrD/jvR4rjlbRvhAQAiUikPb3K+32S3xsXdaACPhlShyIJfWJQNlOivX52Oq1EGjZCLD0JhECzY0ADsKS+kVACkIJ746IiUI4+cloB92vRAhUCwFyZ9hlhmrdrlnvA0/KEUcc4fgpCHWW1B4ClQqVrr0na4weSUEo4T136NDBOczluzSt/An57qvzjYsAxFDkqWgEOeOMM1yulGuuuaagNM6NgImeUQhUEgEpCCWgiflWg38JwOkSIVAhBCBfsw7ALtEQEU8SISAEKo9AVcIcK99ttSgEhEAjI0C2Rai3yfooEQJCIB0EWoSCwI8ExDnNIc1572zPCwsiVo5c27XXXusuh5KWNNleyJPAdaTuTRJobKGzpg6cEoi/Jtv94o5K48aNc3wWmMMht4J9E2ZFG/oY3rKYZ/AXEX1DH2xopS/K+PT9LPfZIHiyIbCO4jnjBjqoCgL4HpC++JhjjnEcJ1W5qW4iBBoQgRahIJTy3qDr9YRLpVyf9jXl9O/MM890lMnQJrMxENtUxRlluRIPQXPtEzfFn9NmNHTrvvFymCz9/eKfAwYMCKuPGjXKbLHFFu6HHYKrN99809x+++0urJZB9+WXX3Z1i30Gz7QIydNNN90U3i++U8qzQQ1NTg2/QSaFYtOxY0dHpBW/h47TRcCme3c06EcffXS6N1LrQqDBEWhYHwQ/ENXq+y+nf5ZoyLB5YTBj1vvf//7XF+X8JDviQw895GiuGRyjgoc8nvKWcCpa7FgxC2mfwZU2b7nlFjfbpxGOySa56667mg8++MBAnVzsM6DQtG7d2lk+yA9CO8svv3xGHzko5dnIz7DOOutktEUOENpnJltIREvGxTooGQFLuGYGDhzolhYUIVQyjLpQCBSEQNUsCHPNNVcTszXpf6M/vMzu4O5nZgB//pxzzumodaNJnsjmx2yYH23ogJOytk2dOtV5cnMe8zm5FaIJfpj5DRkyxM00MUlD4cx6pmVtNG1t+mAGVP/jH0WxkHtH62fbL6V/8bbSpF/mh3fddddtYkWA7vrJJ590eQ/i/Sn0GLyhvuYzKixbYJ3IlmI6WjdpH+puvPfpN+8bBSRJKvVsrVq1cstaZHuUVA8Blsa+//57R99dvbvqTkKgMRGomoJQCLwMEpdeeqkhd8MLL7zg4rkZkA455JDw8r333tvlciBHAiZfZhTkd4jK4YcfbixVsuPmZyZ50EEHuRmHzx5IJkdmmaxzkyKYBE4oBygnF1xwgZli8zgQQsUgTAiVl0Lu7evm+iylf7naq/Q5lCVY0OLLDDCikenQ0iU3uaWlMnYZNeGIiG8+fTYXMYiTxwElsFKD66RJk9z/C+8H4b2iICSxgZbybK7RhD/8nyy66KIJZ1SUBgJk7cR/hLwo5PqQCAEhkDICUC1HJS0ud2sNCHny/f0OOOCAwJqT/aHLlRA95oRNmOTyMMClb9MwuxwAN9xwQ3gNfP/LLrts0L59+7Asacemgg4sqUp4Cm7/ffbZxx3bASygf1YpCM+zY5M6BeQFQMq5t2sgz59c/ctzad7TPIN/1nhl8l9Yi0lY7HMYWCtHYGf5gU2wFJ4jp8KFF16YmJ9hxhlndBiCY3yLtkFj5GewfhHuXdrlheDggw8OrPIW2ME7vFd8J9cznHTSScHKK68cXkIeDfo+fvz4sIydUp8tnp/BJoQKyI9hv5qBtXpk3CPfQVrfr3z3bQnnrRXQ5VyJ5mJpCc+lZxACtYpATVkQ0IVYi44Ks3u85SdPnuwsB5wjfbQXTNXRZQpfHv+0CZ0MHvhJ8v777xs8o1l6iAp94b4wIpKBEinl3tE2s+3n6l+2a9Isx7GR5/dWBKsgOSfEbEsAq622msGKkLSRXTMqWHQ++ugjZwFimQlrDxEGvGtm5cUIFgFSVO+1117hZSwT4WuQLf1zsc9GJlD+z/yG1WDw4MFuy+XsGXZIO2UjQCZPq5wa/l8WW2yxsttTA0JACORHoGwF4eGHHw5/OPkBLTcyAEezqOC7gJBi2Juq7Qw1WsU5p0ULWHqAepVBF18Fli7wrM8mPkUwCoIfBPjcfffd3SUoCIXeO9s9ouXF9i96bTX3eX4iDax2a0gCRArsSlGnWouDU+x69eplWPJ5++23Damujz322KIekWvxDbGWkIx399RTTxmWRFhCSpJing0nyldffTXcWBr54osvzP7775/UtMpSQAAfE2s5MCeeeGIKratJISAEkhAoO4qBtXz8AbwQ054kDLhxYbYZF8LVouLrwJYGexqCshCVb775JjxkHw9zwt1YC7eme+d0yOCWTXCORBhs4rNdynGqYwaN5Lq3q5DnTyn9y9NkaqfhLzjqqKOccoWCwNp+uYKyYZeFjE0LndEUgzBcCN5PJONkjgMGDt511AmV6qxXE21x//33m912261JC8U8G0omvheS5kEAKxHWAxSyJP+X5umV7ioEWj4CZVsQ5p9/fmeaZ/bNZteCE1HD8ZAZohe+9Myk4xIve+ONN9wAT9gb3ukIJl8vtDNhwgR/6GZ53Kd///6G2HwiEhiUJ06cGNaJ72Dapt57773nkivh6R7dGMwKuXe83aRjZqLF9i+pnWqUEUnSpUsXZ8K3fgTOcbGc+zLrRtnCGTQuKA68a8IxCxXPfYA1AKKs6EaoZOfOnbMuM1T62Qrts+oVjwBLSCw9Wb+P4i/WFUJACJSMQNkWhELv7MPmWLNliYBBAjNzXFiPJpJgjz32cAM2cebM9ghXZPaAJcA6LhrrmOg8mYl6IOTMC3WwVmAaJ9MbUQwoC1gG+JFhIOI8AxWKBr4FWD2sQ6KBnIdlCeL5CenDbM2AxSy1kHv7PuT6LLV/9DcqRFjg0e3ZDKPnKrnP7Ns6k7pZOmGj2QTLCtEJSQLe1inUvS+4Dnr37m1Y1unWrZt7DywRWMdTd733eUhqJ15GXdamd9hhh/gpd0wkBn3nXknRBoU+W2LjKqwKAkwAINrCerXMMstU5Z66iRAQAv8fATtgZkhaXtZ2oA6shSGYY445AvtjHZx//vlB3759g6iHuJ3VBaeffnpgzdqBtUy4ulY5COyMO+wjHuqWcc953ttQJ9cG1+AN78UmcQnsQO88nq1CEbz00kvB6NGjA2vFCOws01XjmPuxWdKfwA60gQ11DOwA7qIm7GAY2B+lIOoxXci9fR9yfZbSv3h7eNFby0a8OPE4VwRAtigG35Bd4nHvYdCgQb4oMYrB/js5r/6kz2g/iTohioGICKt8BVa5c5jbQT6wVMvhPeI7Sc9AJIolKYpXDY/5v7H+J2H0jI9i8BUKfbbo/6i/ttTPtL5fpfan1q+77bbb3P/5u+++W+tdVf+EQItDYAaeKKotsdaMp3qsOFoltX3M+jipJZEfpXZTNSwEqohAc36/qviYFbkVv0FEDeH/kY34qiI3UiNCQAgkIlC1JYbEu6tQCAgBIZAFAZg1iW4pZtkpS1MqFgJCoAQEmjoBlNCILjEuYoK19nxbNi4GYSgEhMC/CGA9OO+885z/UXNlav23N9oTAo2JQE1ZEOp58OzQoYNzmMv3bzTzzDUFeb7u6rwQaBYEHnjgAUPkDMm9JEJACDQPAhqtKoQ7lgMN/hUCU800PALnnnuuY9eMMpc2PCgCQAhUGQEpCFUGXLcTAkIgNwKkGocP5eqrr85dUWeFgBBIFQH5IKQKrxoXAkKgWATgLYEjo5AcK8W2rfpCQAgUjoAsCIVjpZpCQAikjMBjjz1mLB+G21K+lZoXAkIgDwKyIOQBSKeFgBCoHgJnn322o/e2RFrVu6nuJASEQCICWS0ION1JhIAQEALVQoCcKk8++aTbqnVP3UcICIHsCDRhUiRrYTT5UfZLdUYIZCKA5znx62LCzMQl6ahHjx5JxQ1dRnItcotEs8M2NCB6eCHQzAg0sSAsscQSRj9ezfxW6vT2UGXbPBku4ZVMxHX6Epup2yT6wv9g7NixzdQD3VYICIE4Ak0sCPEKOhYCxSCwySabmHnmmceMGjWqmMtUt8ER2HrrrQ3pu2W9bPB/BD1+TSHQxIJQU71TZ+oOAVJkd+3a1cWxk+JbIgTyIfDqq6+ahx9+2MB/IBECQqB2EJAFoXbeRYvpiU3DbGxKb3P//fe3mGfSg6SHwPbbb2+mTp1qbFp2l8skvTupZSEgBIpBQGGOxaClugUhgJOi59Iv6AJValgEJk6caB588EFzxhlnSDlo2P8CPXitIiALQq2+mTrvFyx4yy67rBk2bFidP4m6nyYCu+yyi/nggw9cYiaFVqeJtNoWAsUjIAtC8ZjpigIQ6N27t7n77rvNW2+9VUBtVWlEBN555x1z7733mr59+8p60Ij/AHrmmkdAFoSaf0X12UH4EFZffXWz2mqrmdtuu60+H0K9ThWBPfbYw7z22mvmzTffNDPOqLlKqmCrcSFQAgL6VpYAmi7JjwDm4lNPPdXcdddd5t13381/gWo0FAIsK7D8hPVAykFDvXo9bB0hIAtCHb2seuvq33//bdq3b2822GADM2TIkHrrvvqbIgL77ruv4zxgmWGmmWZK8U5qWggIgVIRkAWhVOR0XV4E+OHHinDLLbeY999/P299VWgMBP73v/+5ZSesB1IOGuOd6ynrEwFZEOrzvdVNr7EitGvXznTs2NFcf/31ddNvdTQ9BA4++GBHqczS08wzi6stPaTVshAoDwFZEMrDaw212AAAQABJREFUT1fnQYAZ4sknn2yGDh1qPvroozy1dbqlIwAh0k033eQsS1IOWvrb1vPVOwKyINT7G6yD/v/5559mxRVXNN26dTNXXnllHfRYXUwLgSOOOMKMHDnSLTm1atUqrduoXSEgBCqAgCwIFQBRTeRGYJZZZjEnnXSSueGGG8y0adNyV9bZFovAp59+6pxV4ciQctBiX7MerAUhIAWhBb3MWn6U/fff37Rp08ZcdNFFtdxN9S1FBM4//3wz77zzmn1tBINECAiB2kdACkLtv6MW0cNZZ53V9OrVy1x77bWGmaSksRD4/PPPzaBBg8wpp5xiZptttsZ6eD2tEKhTBKQg1OmLq8du470+//zzm0svvbQeu68+l4HAxRdfbOaee25z0EEHldGKLhUCQqCaCEhBqCbaDX4vZo7HHXecueqqq8yXX37Z4Gg0zuN//fXXznKEBWn22WdvnAfXkwqBOkdACkKdv8B66/5hhx1m5pxzTnPZZZfVW9fV3xIRuOSSS5xT4iGHHFJiC7pMCAiB5kBACkJzoN7A90Q5OPbYY80VV1xhvv322wZGojEe/fvvvzdXX321OeGEE8xcc83VGA+tpxQCLQQBKQgt5EXW02McddRRbkZ5+eWX11O31dcSEPD+JocffngJV+sSISAEmhMBKQjNiX6D3puZ5JFHHmkGDhxovvvuuwZFoeU/9g8//GBQAvE7ad26dct/YD2hEGhhCEhBaGEvtF4eh2UGUkJfc8019dJl9bNIBGDN/OuvvwwWI4kQEAL1h4AUhPp7Zy2ix8wood0l/O3HH38s6JlGjx7tKJvT4vBfbrnlXJbBgjqjSjkR+Pnnn10469FHH23mm28+V1fvLydkOikEag4BKQg190oap0OYnv/44w9z3XXX5XzoyZMnm2233dZA0QvhTlpCGCaETpLyEcAy9MsvvxgUBL2/8vFUC0KgORCQgtAcqOueDoEFFljAEPYI/TKDSTbp27ev2XDDDc3LL7/syHay1Su2/K677jJdunQxb7zxhrsU5YANpYXQvE6dOrn9Yttt9Pq//fab8y/BQgS9tt5fo/9H6PnrFQElY6/XN9dC+g15DmFwJHJitpkkgwcPToVgp2PHjua9994z3bt3N507dzYMbGPGjDEnnniiWWWVVVxKYhJNSYpDAIvQN99848JZuVLvrzj8VFsI1AoCSvdcK2+igfvBUgOzeUzR+Zj2llhiCfPZZ58557dKQfb7778baKBvvvlms+CCC5p7773XbLLJJpVqvqHaAUt8OXr06OGsMPGH1/uLI6JjIVC7CGiJoXbfTcP07OSTT3bhjkOHDq3qM3/xxRdmwIABzlqA42O7du3MbrvtZsg8ic/Do48+aoIgqGqf6v1mN954o/nqq68cMVLaz6L3lzbCar/REZCC0Oj/ATXw/IsssogblBmsWf+vljz++ONm3Lhx5r777nNmcJwUWWqYOHGi6dChg1Meqtmfaj13Wvf5888/zQUXXGAOPPBAs/jii6d1m7Bdvb8QCu0IgVQQ0BJDKrCq0WIRmDp1qll++eWdP8IBBxyQ9fI0TNT+Zu3btzdnnnmm2XnnnX2RPotAAD8SGBPff/99s/TSSydeqfeXCIsKhUBNIiALQk2+lsbr1JJLLmn22Wcf079//4r6FxSDJOvnOCpKikfg77//dtaD/fbbL6tyUHyrxV2h91ccXqotBPIhIAtCPoR0vmoIfPTRR2aFFVZwEQ1777134n3TnIEm3lCFBSGAgydLC++++65ZZpllsl6j95cVGp0QAjWHgCwINfdKGrdDmKX32GMPc/bZZxtmpJL6QIB3heWHd5dLOaiPp1EvhYAQ8AhIQfBI6LMmEDjttNPMlClTzPDhw2uiP+pEfgSGDRtmPvjgA3PKKafkr6waQkAI1A0CUhDq5lU1Rkd9DD1WhH/++afoh0a5mGmmmVwiqFdeeSW8Plt5WEE7JSFAGCjRJ7vuuqtZaaWVSmojelG295StPHqt9oWAEKgsAlIQKounWqsAAlgRJk2a5MIPaW7kyJFuwCf747Rp09zyA/tseM4nCeeSWBCzlSe1obL8CEAqRVhoLuuB3l9+HFVDCNQiAnJSrMW3oj45Jj5okF999VWnCAiS2kMA68G6665rll12WcMyg0QICIGWhYAsCC3rfbaYp+nXr5958803nfWgxTxUC3uQBx980LCM06dPnxb2ZHocISAEQEAWBP0f1CwC22+/vYFA6aWXXpIVoQbf0nrrrecYE2GilAgBIdDyEJAFoeW90xbzRFgRWGJ45JFHWswztZQHeeihh8yLL77oMl62lGfScwgBIZCJgCwImXjoqMYQ6Natm0sd/Oyzz9ZYzxq7O2S7nGeeecyoUaMaGwg9vRBowQjIgtCCX25LeLTTTz/dPPfccy6pUkt4npbwDGPHjjVPP/20rAct4WXqGYRADgRkQcgBjk7VBgJkWPzrr78M2fskzY9Ax44dTatWrVw67ObvjXogBIRAWghIQUgLWbVbMQQmTJhgNtpoIzN+/Hiz6aabVqxdNVQ8AnoXxWOmK4RAvSIgBaFe31yD9Vuz1tp44Vhz/vzzT/PEE0/URofUCyEgBFJDQD4IqUGrhiuJQN++fc2YMWPMM888U8lm1VYRCDz//PPmscceM7wLiRAQAi0fAVkQWv47bjFPiOd869atRZ7UTG9UESXNBLxuKwSaCYGZm+m+uq0QKBqBU0891Wy99dYu/h6KX0n1EICPAu6D0aNHV++mupMQEALNioAsCM0Kv25eLAJi7ysWscrUF6tlZXBUK0KgnhCQD0I9vS311ZDpccSIEeb1118XGlVCgGyN5F2A2ZJsmBIhIAQaAwFZEBrjPbeYp8yXQfDvv/82M800U4t53mo+yPfff2/mnHNOM/PMmSuPPXr0MMqsWc03oXsJgdpAQBaE2ngP6kWBCDCDPeWUU8w999xj3nrrrfAq8gJ0797dXHPNNWGZdopD4P777zcrrriiGTx4sAtl5Op33nnHYU3kgqwHxeGp2kKg3hGQglDvb7AB+7/TTjuZ9u3bm/POO8+FPXbp0sXgmzBy5Ejz8ccfNyAilXlksPvoo4/MwQcfbJZeemmnbJ111llm5ZVXNjvssENlbqJWhIAQqBsEMm2JddNtdbSREWAm27NnT3PDDTeY2267LTSJzzjjjGbKlCmNDE1Zz45yAIbQWn/66afmqKOOMrPMMotBIfvtt9/MHHPMUVb7ulgICIH6QkAWhPp6Xw3fW5IEdejQwTkrfvLJJw4PBjTkn3/+MZMnT3b7+lM8Av/73/+ccuCvxJ8DxeDOO+80SyyxhDnjjDPMDz/84E/rUwgIgRaOgJwUW/gLbimP9+STT5rjjz/evPzyy85i4JWC+PMtsMAC5quvvooX67gABJZZZpmcFhicP0nxfMUVV5g99tijgBZVRQgIgXpGQBaEen57DdT3xRdf3EyfPj2ncgAc33zzjfn9998bCJnKPCrRISwr5BKWH+abbz7TqVOnXNV0TggIgRaCgBSEFvIiW/pjLLfccubZZ581iy66qFsXz/a8DHR+6SFbHZU3ReDLL7/MqVjhi7Dkkkuap556yiy22GJNG1CJEBACLQ4BKQgt7pW23AfCsx4fBJSEeKx+9KlxtpMUh0Cu6A+Ug6WWWsphL+WgOFxVWwjUMwJSEOr57TVg3/1AxZIDA1dcWCfPNdjF6+v4/xBAqUriOQDjtm3bhoqZ8BICQqBxEJCC0DjvusU8KaZuLAlJSgKWBVkQin/VKFVxhYvjFVZYwUyYMMEsssgixTeqK4SAEKhrBKQg1PXra9zOE3aHTwKz2+jARmieLAjF/1/EMQNTWBXHjx9vFlxwweIb1BVCQAjUPQJSEOr+FTbuAzCrxWmO8DyvJBD+SDy/pDgEIJj6888/3UVgudJKK0k5KA5C1RYCLQ4BKQgt7pU21gMtvPDCTklYdtllQyVBCkLx/wMQTBEBwhINNNbwTsApIRECQqBxEZCC0LjvvsU8+UILLeQGNEIhkc8++8wNdi3mAavwIFOnTnV3QTkYO3as4zuowm11CyEgBGoYAeViqOGXk69rl1xyiVuHz1evUc7jUAeZEnTA2267rZltttka5dHLek78Nr777junFODTccghh5TVXku6eIMNNnAMni3pmfQsQqBQBGRBKBSpGqyHk95zzz1Xgz1rni7NOuuspmPHjm6g++WXX5qnE3V4V7BiOWHTTTcNl2nq8DEq3mW+W3zHJEKgURGQBaHO3/x///tfM3z48Dp/isp2H7plaIMxl0vyIzBt2jTTunVrM9dcc+Wv3EA1dtlllwZ6Wj2qEGiKgBSEppiopM4RmH/++Q2bpDAE4JOQCAEhIATiCGiJIY6IjoWAEBACQkAICAEjBUH/BEJACAgBISAEhEATBKQgNIFEBUJACAgBISAEhIAUBP0PCIEiENh+++1dUiMSG/mtTZs2ZvPNN3eETUU0papCQAgIgZpGQApCTb8eda4WESBHwYsvvhhuN954o/Ehlo8//nhFu3zVVVeZfffdt6JtqjEhIASEQCEIKIqhEJRURwhEEJh99tnNOuusEykxZssttzTLL7+8ueyyy0ynTp0yzpVz8PLLL5dzua4VAkJACJSMgCwIJUOnC4XAvwi0atXKrLrqqhmZJH///XfTq1cvQ3pqzi+99NKmd+/eYVIkribZFARF8847r5l77rnNRhttZMaNG+cahvRpyJAh5qabbnLLGa+99tq/N9SeEBACQiBlBKQgpAywmm8cBMiIuOiii4YPfNhhhxmWH66++mqnOAwcONDtn3TSSa7Ozz//bLbZZhuzxhprmDfeeMNMnDjRKQvdunUzX331lXn00UfNeuutZ/bcc0/z66+/mtVXXz1sWztCQAgIgbQRkIKQNsJqv8UjQHKoU045xbzzzjvmgAMOcM/LAH/zzTcblIHu3bsbUlPvuOOOLs/BoEGDzB9//GHIoEjeCBj7llpqKbede+65zrdhnnnmcVYHHCFnmmkml1eCfYkQEAJCoFoIyAehWkjrPi0Ggddff92Z/KMPtOCCC5rBgwc7JYByLAIkQSLZT1TWXXddg+Xg/fffNyuttJLB4XH33Xc3WBu22mors+aaa7qliug12hcCQkAINAcCsiA0B+q6Z10jwKD+6quvhtvHH39svvjiC7P//vuHz4VlAJlvvvnCMnbwNUB+/PFHF/nw9NNPm1133dVgVVh77bVNW5tN8fbbb3d19EcICAEh0JwISEFoTvR177pEgCgG/Ab8hhNi3PxP8iPk22+/zXhGEkkh/jwcChdeeKH58MMPzaRJk0yXLl2czwEKiEQICAEh0JwISEFoTvR17xaLAMrDLLPMYiZMmJDxjKQQRjlYYYUVzPTp002UN4Elh+uuu87MPPPMboki40IdCAEhIASqjIB8EKoMuG7XGAiwtLDffvuZiy66yPznP/8xa621lnniiSfcUsKJJ57olIC3337bdO3a1Vx66aUumiEIAnPHHXc4gEjjjdAOPg84QOLoGF+ycJX0RwgIASGQAgJSEFIAVU0KARC44oornLXgoIMOcj4KLEX06dPHRTxwfosttjA33HCDUxBOPvlkF63Qvn17M2LECOfASJ2jjz7a7LXXXmaTTTZxvgksQUiEgBAQAtVAYAY7awmqcSPdo/IIEB6HDB8+vPKNq0Uh0OAI6PvV4P8Aenyle9b/gBAQAkJACAgBIdAUATkpNsVEJUJACAgBISAEGh4BKQgN/y8gAISAEBACQkAINEVACkJTTFQiBISAEBACQqDhEZCC0PD/AgJACAgBISAEhEBTBKQgNMVEJUJACAgBISAEGh4BKQgN/y8gAISAEBACQkAINEVACkJTTFQiBISAEBACQqDhERCTYp3/C8Dt7wld6vxR1H0hUFMI8N3ylNc11TF1RghUCQFZEKoEtG4jBISAEBACQqCeEJAFoZ7eVkJfmeGIajkBGBUJgTIRkGWuTAB1ed0jIAtC3b9CPYAQEAJCQAgIgcojIAWh8piqRSEgBISAEBACdY+AFIS6f4V6ACEgBISAEBAClUdACkLlMVWLQkAICAEhIATqHgEpCHX/Civ/AAsuuKA555xzcjZ85JFHmlVXXTVnnVwnTzvtNDPbbLOFVbbffnszwwwzmLvvvjss8zufffaZO/fEE0+4oj333NMdUz/bdu211/rL9SkEhIAQEAIlIKAohhJAa+mXDBo0yKy00kpVf0wUhl69epnu3bubWWedNev9zzzzTIOC4gVv8//85z+mb9++vsgsu+yy4b52hIAQEAJCoHgEpCAUj1mLv2KHHXZolmfEijB+/HhzySWXmN69e2ftw3LLLWfYvKBMtGnTRqQ2HhB9CgEhIAQqgICWGCoAYktrIr7EMH36dLP11lub2Wef3Sy88MKG5YF8csopp5iZZy5O/2zVqpVb2hgwYIBhWUEiBISAEBACzYeAFITmw75u7rz33nubd955xzz++OPmxRdfNL/99luir0C5D/T333+bfffd16ywwgqmT58+5Tan64WAEBACQqAMBKQglAFeI1w6bdo0M3bsWGc1gLVxqaWWMhdeeKGZc845cz7+eeedZ/7666+cdZJOzjjjjGbgwIFm6NCh5pVXXkmqojIhIASEgBCoAgJSEKoAcj3fAssBghOgFyIH1llnHX9Y8c9NN93U4I9w3HHHVbxtNSgEhIAQEAKFISAFoTCcWkSthx9+OCMsEHN+Pvnxxx9dlbjFoHXr1vkuLes8Vornn38+laWMsjqmi4WAEBACDYJAcV5kDQJKS33M9dZbz/kR+OdbZJFF/G7WT68Y/PLLLxl1vvnmm4zjSh8Qpnj00Uebk046yTz55JOVbl7tCYFmR+DZZ581U6dObfZ+qANCAAQ23HBDs8QSS2SAIQUhA46WfTD//PObjh07FvWQng/h9ddfD5cVcCacMGGCob00hWiJm266yVxzzTVp3kZtC4FmQYBw3iRisGbpjG7a8AjcddddpkePHhk4aIkhAw4dxBFYeumlzQYbbGDOOussZ32YOHGiOfTQQw0hibmklDDHeHvzzDOPu+9ll10WP6VjIdAiENh5551NEATahEGz/g9k+zJJQciGjMpDBG6//XYXeti1a1ez2WabmUUXXdTss88+5s8//wzrpLVz4IEHihUxLXDVrhAQAkIgBwIzWO01yHFep2oYASiGkeHDh9dwL9U1IVCfCKT9/Uq7/fpEXb1uDgSITNMSQ3Mgr3sKASEgBISAEKhDBLTEUIcvTV0WAkJACAgBIZA2AlIQ0kZY7QsBISAEhEBBCCiVe0EwVa2SwhyrBrVuJASEgBAQArkQUCr3XOhU/5wsCNXHvO7uGM/uGH+AfOfj9Ys93nzzzc3qq6+e9bL333/fMUReddVVYZ2ePXu6suuvvz4si+5A5YxjTnSbZZZZXLTG8ccfb77//vtodbePPy+8DJtssomBSXKOOeZw9Y855pgmhDe0v8YaazRpg4Knn37a3feJJ55IPJ9G3xNvpEIhUGMIkMadnC9+i6Zy92ULLbRQjfW65XZHCkLLfbclPxkDbZSGedCgQWbHHXcM24ufD0+ktENf3njjDfPWW28l3uG2225zvAy77babO//dd9+ZBx54wJDTgQE9m6y44oouOyUZKtkYsI866ih3TZcuXcw///yTcSlZLffff3/Trl07Q+jnqFGjXP2RI0eaNddc07z55psZ9Us5SKvvpfRF1wiBWkQA9kkIfUg9P9tssxnI3KKTA/pMkrltttnGKfGLL764SwAH8ZonfqvF56rFPmmJoRbfSjP36eWXX87owQ477JBxHD+fcTKFg5122skcccQRBkVgwIABTe7AYL3tttuGzI533HGHm+FfdNFFBnrpDz74wCy//PJNrpt99tlDdkh/cqONNjLzzTefQRmALXLjjTd2p2688UZz6623miFDhmQoT506dXLHMFSOGDHCrLbaar6pkj7T6HtJHdFFQqBGETj88MPNZ599ZsaMGeO+83feeac58sgjXabZ7t27u17jyzBlyhSXiRb6YCjbX3rpJYNFQlI4ArIgFI5VQ9RkoGMQZOaN+f21114z0SWEpPNxYKBi7tevn2nbtq37QjI452NDzMW8iCkfxjkUgThtxwsvvGBYYsDK4IVU0cww1l13XTdjuOWWW/ypgj7XXnttV++TTz4J69N/GCWj9/EnYXwkNTUzlHIljb6X2yddLwRqCYEHH3zQWfzIMMvgf+KJJzrl4JFHHnHd5HuLNRB/Br6zSy65pEHBxzonKQ4BKQjF4dXiaz/66KNu1o0G/uuvvzZZ+893HoBQDuCZv+CCC5wWf8YZZxgUgHJyKjAwf/zxx+app57KeAdYFUg6tdVWW7nySZMmGZQGLAAIz4GCEFcs3Mksf9577z13ZqmllnKf/LCwfOBnJ1kua1L8008/uR8qfqyi26uvvtqkLgVp9D3xRioUAi0MAZYRvvrqK/dUPkU9y35esBay5CgpDgEpCMXh1eJrk2MBy8FMM83k1vfYj0q+8wyKl156qdPqmcVDy8wgvd9++5mLL7442lTG/nnnnWf++uuvjLLoAY6BZHhEIfCCpWLYsGGuffqLYP1YeeWVw6UDb2qMKxa+jejnH3/8YZ555hnTq1cvw+wEpygEcyYKBnkpipHJkycbliDiG1kqkySNvifdR2VCoJ4RwF+IJUWUAgZ+nIvJjOmF3yBkrrnm8kXus02bNhnHOsiPgBSE/BipRhEIYO7/+eefDUsRUWGAZ8D88ssvo8UF76OoYBWAVpqBHBk7dqwbvL3ZH4UBP4G99torbJdlDvwIbr755rDM75Chknb9xvpkhw4d3LLEQw89ZGac8f++HvwAIXGnRd9Otk8iL1As4luSspJW37P1TeVCoB4RIM38lltu6b6bWOWw7pETxivzPBNKAxJPUf/111+7cv0pHAEpCIVjVfc1H3744XAwZFD0A2slH+zTTz91zaEg+IGXz913392Vl6ogcDEJovhBGD16tGsLa8I666xj2rdv745Z/pg+fbrp06dPxr0ZkFEsWDKJClEMmPv9RoQCKaxRJhZbbLGwKlYQlAWUn7Qkrb6n1V+1KwSaAwG+q99++63p37+/CzFGqUdpIMuslxVWWMHtRqOefvvtN/Pkk0/6KvosEAEpCAUC1RKq4dH/+OOPhxt+AZUWHPYQBjyUgfhWTpgR1gBm+Dgr8oW/7777MpQcHPxYZ8RfILrhvUz9+++/P+NxmWnAVeA3oh6Y7bPEEBWcJHF2uueee9z56LlK7afV90r1T+0IgVpAgGU+JhxELnz++eduSRCLIf4GU2zUAt9fuBT4TuP7RMQVYZFkhcXZWlIcAlIQisOrrmszO2Zm7zfW6istmNXR6nH04wsZ37yvQKn3xYqA+R8rwu+//27i3AdYKlZdddWMjaiEzp07Jy4zRPtBeCMzEzyex48fHz1ljj32WDdLOf/88zPKOcDESWY+6pQiWEXgbUir76X0SdcIgVpEwEdE8R1lwoAyf9ZZZzkn6Hfffdf5DtFvFIgFFljAbLjhhm7SwMSCDd4ESeEISEEoHKuGqclAyfo83sCY8+KS6/zcc89tDjvsMBdixIwdBz9CJbt165Yx24+3mSvMMVrXp8g9+eSTm3AfMFDHORv8tVxH3LRfAvHl8c8DDjjAhUceeuihoa8DdQizhIuhd+/eBqbDe++91/lAXH311QYFZNy4ceEySrzNfMdwH6TZ93z313khUKsIwGGCdS0qkJkRysiSIVwlfP+6du3qfquiZGUsFTKJ+PDDD81BBx3k+FCWWWaZaFPaz4OAFIQ8ADXiabzsMcvhWIjHcFzyncdUD5kJM2pikAlBxHrB7LxcmXPOOQ3ESfxwRH0o4G1geSEbDet2223n/AiiURBJfcHX4MorrzTMRuKkTJQTNcGyycEHH+yY2ojY2GyzzZxCxRJOKVKNvpfSL10jBOoVgRNOOMHAhooCQXg0ivxjjz3moqnq9Zmao98z2DWboDlurHuWj4CfTeOAJxECQqCyCKT9/Uq7/cqiUV+t4bh43HHHGRyzCXtkaQJCpWiEU309Ubq9xa/jrrvucgRz0TvNHD3QvhAQAkJACAiBekcAi2WuPCz1/nzV6r+WGKqFtO4jBISAEBACQqCOEJCCUEcvS10VAkJACAgBIVAtBKQgVAtp3UcICAEhIASEQB0hIAWhjl6WuioEhIAQEAJCoFoISEGoFtK6T10gQHKnKEV00v61117rnmX77bfPWRfuBASPap+0yhVE/uBhTSio528o5v6RZrQrBISAEKg4AopiqDikarBQBK666irHsxAnQin0+mz1ymmXHPJHHnlk2DShaGR27Nu3b1hGVkkv8L4nJYLiPExuCB7VKBUoFIRZkWzGy+mnn+6SyvhU2MXe37ejz/pEAMIfuDUkQqAWEZCCUItvpUH6BE96GlJOu/C4s3mBNpo0sdFscf4cn+RpyHYuWg+ipj322MOxTJJEhutgq7z88ssdU9wiiyziqhd7/+g9tF9/CDz33HOOmbP+eq4eNwICWmJohLdc5DNC+wvHORkNSWhEboNBgwaFrUBfynlM461atTIkUIGCmOu8LLzwwo697OyzzzYMfiRx2mabbVyCFeqQD2LIkCEuVhkzPnTMpDzu16+f41hnYPa8675NPktpN3o9+4XSOsevK/f4iiuucEmjsBrATwadMxSxLCtIGhMBlqH4X9AmDJrzfyDbt08WhGzINHD5Mccc4zIfXn/99YaETmSAhP8chYGcCuRaGDFihJv5rrvuuo7OdL/99nOD38CBAx1ys8wyizOroxSQZpWcDDvuuKNLrMISANkeoXIm5TLKBwoBZvzLLrvMDB482J0bO3as41BHCeGeSCntugtT+oMPAXnpkwSOeHJTeCGHxXXXXef8DeCRJ9dFNE2tr6dPISAEhEAtICAFoRbeQg314fvvv3cDNLNdBneEmTzJTpCvvvrKrbmfe+65pnv37q6MgR9TKXznZDtkQEfmmmuuMP8CigD1fW4H6mA5ILsjGdYYaMlrgGWiR48e7npm1nCpX3zxxaGCUGy7rqHYn/POO8+wVUJIBONxirf31FNPuTS00XIwwCERrFCmFl988ehp7QsBISAEagYBLTHUzKuojY6wLv7HH380Gdh879544w23FLDBBhv4IveJJeHnn38277//fli+/vrrh/vs4KyXlB2Sc1zH9Sw9RAUrw+TJk12CJF9eTLv+mrQ+V1ttNafcoODEN3LUxwUFDGWKpFJkhMSsKBECQkAI1CICUhBq8a2k1CcSl0TD9qLZEP0tf/jhB7eLE12S+POYy6My77zzusMff/wxLCbzYlS4d7YB0adhRkGI9nH33Xd3TZBB0Usx7fprauWTDJdgh2XklVdeMT56oVb6p34IASEgBDwCUhA8Eg3wSTpi/An8hrNeXHAmRL7++uv4KXfcunVr9xm3BBDrj/jz7qCIP/6++CagDMS3lVZaqYjWarPq6NGj3fIMvh1EK+CsyDsgHa1ECFQKgQUXXNCcc845OZsjlBfn41LltNNOc0uD/nrPCXL33Xf7ovAT/yOUfu+rI66PEJqa35EPQs2/osp1EBN/3IQfb52YfxwBWT/fdNNN46fNGmus4c4zA46ex2yOcgAvQCmy+uqrO0fF9957z3Tu3LmUJmr6mu+++875cRC54MMiSUcLh8IhhxxiHnrooZruvzpXPwjg9NscCjW+RPgQ4WeD03E2EddHNmRqr1wKQu29k2btEUsF++yzj7nwwgvdj0z79u3N888/bw4//HAXbUAsPxELF110kSMQWmuttdzMgB8l8q3PPHPh/1KY2vF5wJufUEgiFfjxwHGPQZSZR58+fRwPwdChQwvGJd5ufDmEWTv9/+uvvwpuM1vFX375xfkUJJ1n1uT9JYgCQQYMGBBWRRFjiaFDhw5OUdh7773Dc9oRAqUi4Fk5S72+1OuwIowfP95ccsklLuw5Wzvi+siGTO2VF/5rXnt9V49SQuDKK6904XmYIZn5wnMAnwHKAUKEA9YCIhu++OILx4fAQJ60ZJGri0cffbRjFsQR8fbbb3eDNu2yTj9t2jTHRIg1oX///rmaaXIu3m6XLl2a1KlUAc6VcYdN3zYRGighDzzwgLn11lvN8OHDHR+EP88nz45ChjUBhkV4HiRCoBwEWGLgO8QyADJ9+nRz4IEHuqVFlvJ8RFKue5SiRBOZxNIG92YS4cm/ct1H52ocAes0JqlTBCzJSsAmEQJCoPIIpP39Sqt9S/EdWIU+BGTzzTcP2rZtGzz77LPBRx99FJxwwgmBVUQDax0M68R3Tj755MAquPHi8NhOCAK7jBAeW6bQwE4gAkt2FlirYrD//vuH56wDMqE6gfV9CsuiO9aiEFglOVqk/SojwPu56667mtxVToo1rsCpe0JACAiBUhHAEgfhGNYElu2WWmopt3wYjwSKtw9PSClLcDPOOKPj92BJkCgdSX0jIAWhvt+fei8EhIAQyIoA/j0Izsde8I1ZZ511/GHFP3Fexh+BZTNJfSMgBaG+3596LwSEQIMgUAiPSRwKz0sStxiUGo4cbz/bMU7OODcnhT1mu0bltYeAnBRr752oR0JACAiBJgh4HhN/ohAnQK8YEG0TFc9bEi2r5D4p0XEWPumkk1wulkq2rbaqh4AsCNXDuuHvtMQSS4Se1c0BhghkmgN13bNSCHgeE7hM2Eiklk88HwLhxF7ImgqPSdqC3wP06WILTRvp9NqXgpAetg3fMlkbk+icmwsYuBpILFVt8QQypMnOJXBAWE/zcEOh2nrrrcNjzjVH/3P1WedqGwFClAnDPeuss1yYI9lDIevyCdWy9Z4wx2I4TZLaIaSS+5KhVVKfCEhBqM/3Vhe9fvnll2uqnxDIrLLKKlXvEw5bKAcQyOQSCGTwNPcbbHRt2rQJjyknyZNECBSDABwjMJx27drVbLbZZmbRRRd13Bt//vlnMc2UVBf+BZYbJPWJgBSE+nxvqfZ66tSpLuUypD3MfjFTYg2ICqmcYSOMCj8G3jsaE+iQIUPMTTfd5HjYX3vtNVcV8iBIl1g/ZYZBquTPP/88bIaBFLrWJZdc0s1ymAH17t3bRH/MMLVC1mRjrw1JpXwCqbCRLDvxJQYIZJihzz777I6gyBPLZLncFZcys/IEMrAowg4pEQJpIkBK9uj/suVAMI899pj57bff3HeNWT3WqnfffTdrN/KFOUKIRHte7r//fkcG5o/9J993MsDaAHu3LOLLo58ffPCBKYYpNXqt9tNFQApCuvjWZevQKn/44YdmzJgxhi8vzGuwKj744IMFPw9Jl3CqIjHLr7/+asi1gAwbNszgMPXkk0+69sjhwA+WF+iWb7zxRnP11Ve7JEYDBw50+zg7eWHApQ4KzG233eYGeH+umE+ojQkDI3nViy++6H7w0vC6Zs2XpRZmcTBOSoSAEBAC9YCAFIR6eEtV7iOKAAMmsdOsg5NjAYKVRx55pOCeMIgTb80MAisE+wizf2bSK664ostBQGKXl156yZ1j5kPyIpQByrEysOZOMiP8B/744w9Xj7VRBl2yIrJsQE6DYkUEMsUipvpCQAg0GgJSEBrtjZf4vCRQYgAvV1hHjwoKgw+5whTJwB/PbbDuuus6b2jyHnjZeOON/W5JnyKQKQk2XSQEhEADISAFoYFedqFEK1gPtt12W5dVkfV5Zuh40FdCaC8qWBZYn0S8L0E8+yIZJhFP+sJ+vA5lxYhvy8eJ+2tFIOOR0KcQEAKNjoCIkhroP6AQohVm82QVhC71iSeecEsLeNPHZ/V+ySAK308//RQ9LHrfD87ffvttxrXewuDPczLp/hkX5TnwioEIZPIApdNCQAg0LAKyIDTQqy+EaOXVV181DNCkWMapDuWAAZr46agwq48O5CwNYHkoR9ZYYw1nrYiTuODIiHJAfyolIpCpFJJqRwikh4DNRBk6OCfdhWVHJgvRKKuePXu6MnyUkoSwY66JblhJ+X05/vjjzffff9/kMqycRGSRnp3fIqKnqH/MMccYor6iQvv8liXJ008/7e7L5CtJ0uh70n0KLZOCUChSDVKPsEK+OHfeeacLiXrmmWfMXnvtZdZcc00zZcqUcDkAv4A77rjDwHUwadIkQ/QBmdyiwjIADG6s90eViWid6D71ySNP+OTo0aNdSCD9wEGRHPPlErdE7yUCmSga2hcCtYkA0T/4Jr311luJHSSKCYfo3XbbzZ3/7rvvzAMPPOAsoAzo2QQnaSY0fmPAPuqoo5wS0KVLF/PPP/9kXErEk01hbdq1a2fglRg1apSrP3LkSPfb+Oabb2bUL+Ugrb6X0hd/TeYvui/VZ8MisPzyyzvmM8II29r4aTgJCEMk/p+4aZ8VjmQsDLIsRUC+wnV8SaMpYuFiR7tG6y7UugC/AV9EQivhQjj11FNdaGC/fv0q/k5EIFNxSNWgEKgoAjvttJOZe+65XThzUsN8h/GXwjqKMGlhhs8kA0skYdpJgi8UnC1+22ijjVzuiEsvvdS88MILGVTU/BbeeuutZvDgwS5yqlu3bqZTp06uPhZXIrxGjBiRdJuiytLoe1EdSKpsTSeSOkVg5513DtgkQkAIVB6BtL9fabVv2TYDa3IPrGIfWK6QwA6wgR3UAkvSFYL08ccfB7vssktAXbuMGNgZdXDllVeG59nhnFXYA2t2D+ygG9hB2LVpnYmDXXfdNbB+PIENgw7sABpeZycIwemnnx7YyUNgZ/aBZQcN7KAbnk/aOfnkkwMbDp10ypVZq2JgB+HAzuoz6thskXg3B3YWH5ZbP6vAWgLcsV1GdH0JT/7/HUuwFlhelnixO7ZLqa5NO1iH5+2kKLA+WOFxvp1c7T/11FOufcu90qSZNPre5CZZCsDxrrvuanJWFoQkrUllQkAICIE6RYD19GuvvdYRlEFIhhk8TkhWCBka7ZBoiRBnuEoOOOAAYwd/x7IKbTPsqFgPacsvIWLpg1L8ggsucEuSZ5xxhrM+lpOwiWUGq9AYO7hmvBGWF+BK2WqrrVw5S53M/lkOQCBpu+WWW8JlUVeY5897773namAVQDD7s3wAL0sxgsM2yxbxDYtDkqTR96T7FF3WRGVQQd0gkNYMpG4AsB1FE7f/9Hm3L7/8sp4eS32tAQTS/n6l1b4d0JvMeO0gG1i/oZyoMks/4ogjwjq0YxWA8JjvEN81uwQYltkBz5XZMOjAhg47q4JVCsLz7Fj/JGdJyCgs4gDLgc3nEBx88MHhVVgqrHIQWBK3sMwSrAU2w2V4bNlgA+tPFYwfPz4sYydphm8p3gPrQBjYpdIAi4F1unbXWP8p93xWGcloI9cB7ef7TYpbENLoe64+xs/RX1kQLAqSloVAhw4dXJ4GcjXk2sjDIBECjYLA+uuvn/GorNH7WX7GichBEhmap0in2gILLOBqJ5Xh+U9EAemdycMSFXyQJk+ebKyCES0ueB+naawCw4cPD9lUx44d65yYsS4gRFHhJ4BDtRd8qCBUg501LjhPR6MYiNbit4Topoceeih0uMaKgsSdFuPtxY/ByA7CTba4FYTr0up7vE+lHGuJoRTUdE3NIMCXnOiGfFvNdFgdEQIlIlAo0RnNe54Pfyu+JwxYXnAaLoQMjXA+L7SBJJXR9qeffurOoyBEB9/dd9/dlZeqIHDxPvvs48z9RDchLC/gYNi+fXt3TO4Xkq+R6yR6bwZkFAvywUSFKAbM/X7DMRolCmViscUWC6uS+ZLorCiLa3iyQjtp9b0S3ZOCUAkU1UZDIBDPBpn00CS1WnXVVZNOFVRGFj5yV3jxMdtJSaTIDMmPIeucCGuu0R/HpH3WpiX1iYAnOrPmaZdgjMiiUsSToTHw8b/DOjvWtzgNerFtk50VYcBDGYhvnnuk2Hap39ZaA5jhE7VAFsn77rvPeOsB54cOHeoiqvAXiG74TlCfbJNRIYoBrgK/EfWAkkPUVlRQhiCJu+eeezIUrGidcvfT6nu5/eJ6KQiVQFFtNEEA4pLoF7hJhTosgI+B5FHVFhQGfrhIhZ1LSOELJbbfSLRFOmt/zGdz9D9Xn3WucASY4TI795tdby/84khNZs0sN+QjQ4tcUtAuZnVM9Tj6oUzHNxK3lSNYETD/Y0XguxDnPsBSgXIe3dZee23TuXPnxGWGaF/gYAEPQhqtz0L0lONggSju/PPPzyjnAMXKRoO4Ok1OFlDguQ/S6nsBXchZRQpCTnh0slQEIFBqaULmyFVWWaXqj4UVgR9EvMNziQ0pc7NAZoJs/Fi3adMmo8yGruVqQucaAAH4S7Au5SNDKxYK+AogTENRZcaOhYtIB3gDck0WsIQUQoLGQIzYsMgm3AcM1Hw/k4TrSF3vl0CS6lBGlAYEcIceemjo60C5dSY11nnT9O7d28B0eO+99xp8IEhJjwIybtw445dRqF+MwH2QZt+L6UtSXSkISag0eBn/sMxYWYvDFIdGzuzZC+RHPXr0MDbG2pnDMR1GqU6Z4QwZMsSxkvFDxI8EjjiEQGEqZODyhEy+TT5JwbzNNtu4NU4cpgYOHGgwuUdNkwyU9A0SJRjU+LHji0ufvTDTgnDJehO7tlZbbbUwFMrX4RMSlrgzV/R8fD++xMCaJzN0MAIL+ppPCv0xjLbDc55zzjkuTTY/uhIhUA4C/ruXjwytlHtgqifsEeZTvqOEIPJ9ZHZeruBXwXcW8qOowgFjIoRt2ZRffgdYTsFvIZdQx3JBOEI4UtJHhfJhw4a5ZRMbTeF+pyBVIswTh0eWf0qRavS9lH6F19h1F0mdIpBWmBRhSdY5J3jwwQcD65wTWE5zR6biCUnsIB5YB6HAfjECqywEllXRhfVYilOHpB3EA0g/7Jp4YJ2DHMGJdR4K5pprLhdKYwfWwMYnB9Z0HlgtPETfKhaBVSACy4AWQOQCGQthR9YRKawDaYr9wQm4l50RBHZtMLBrn4H9QQrrQA5j1xYDy8YYWG3fkcZAxPL555+HdWySJheSdfnll/+/9s4E/qZq/f9PpZtCplIaNZhKg1DiRoMIUVQ04aaSocKNRClUSGXoGkODW66p4TZIhMwRMkcUim4Uioim/V+f9f+t3f5u55zvmc8ePs/rdZw9rr3We32d9ey1nsE+lt+GsuK2nnzySfsyFSde11dN3Vtbt261HnroIR2Yxllf++L/28gvKAw4KQXKvg0uU3fccYd2u7rkkkvyuJih/eo/suV2mTI3I0iNmpY1u/xOkECm/n+ZamS6fPMcfpNAfgTwOxLJzRGGFxSfEsjED4xaE9MR0EaNGpUQFbcPtXoztwenePyjoWjgj1Rp1PZzMYirt3ZbQVBGTzriWv/+/e1rsKFmFPRgD8UEAv9tNWugt/GPcsGy1Fu+5VQG1BSopaY1rZ07d9rX5bfhVBC2bdum6ztmzBj7NuOvHUtBsC+OshFNQcDl8OdWbzmWWr7Rd1NBiAIxTYcz8f/LWbVMl+98FrdJIBaBaAoClxgUGcpfBDBd9uuvv+oEJH8dzX8rkg+1uSse/2gkdIIgKZQRTN1j6tAIkrZgqcKdehrrhvC/droiwf/ZCKyrsY7vnGKEFTTSWmONPhkx9TW5KVAGllPgepUpAQu0o3Pnzpl6BMslARIgAZsAFQQbRfA34vGjVnHWNQinr7ObTLw+1OY+9aarN2Gb4HS9M4Y9cIdCaFKIWobQ3+Yf5wBu6gaLY6cg9TREzVTYh93XYM1SxW6Xr776SieUUssneYKq2DfGuWGe5fY3R6KYTAqSZKEdkdweM/lclk0CJBA+AgXC1+Twttj4URsCiGPuFuPLvGvXLvcpvW98qPE2Cx9qxCyH0aH7rd55sykT/tHOGQJzDQZzxFqHqGUFc1h/O+thBl93RDjUCWLOYxuKiFPq1KkjcPuD5TYME2HUiEAxyYpRDNz1NXVJttz87lMhZ3UWORWaVRBnn0ICJEACmSLAGYRMkfVgufH4UWPKHOFFI4UERZOS8aGOxz+6bNmympgz7zsCnDgHQQQ1Qd2QxtUpSEQD5cCU4TxntmGhjEBCCHiCj1r/1d4H5nyi38azAksyRrD84a6bOZfOb3hLYEkllQQ46awPyyIBEggmASoIwezXpFuF6XoEJMFUNqaxsdaOSF9YcsAafrw+1JgVwOCJ+1VilXz9o+HDDwUA2d8QQwGulPfcc48OtmIagzKVF4PO9Y5gKXD5w4wAXDDhVpWfLzWWGaDgwPcYykIqAg6YNVEpdXVUOwRSgf80XBJjSTJuju7yMCOD5w4ZMsR9ivskQAIkkDYCVBDShjI4BcHnF7HJETYYSwLwCVbufaLc7ez4Bfn5UD/44IN6kEeiFtgsxOMfjcEeCWFq1KihjRMRWhUfZ+hhxDdA3ZQLo/az7tGjh46/jhgL+Qne+rG8gOUB2EOkKgj7ilkLpL6FPzTitkO5csZkSPUZ0e6H8oTlBgoJkAAJZIrAEXB9yFThLDezBExkMSQjCYJs2LBBLyE4B766devq5YN0tBHeGUjugpkEJHWhkEAsApn+/5Xp8mO1jedIwEkANlsqDoIOgOc8TiNFJw1u55SACjQk69ev13HTYVCoAjPJRx99pL9TqRi8H+BJgbV7ZHV74IEHUimO95JA2ghgGc9tUJu2wlkQCaRIgApCigB5e/oIINUqfPwRUx1ujwgJi1CkCGeciiDsM6z+YSwJV0/jVYEy4Ylx1VVX5Vs8XDERaplCAuki8M9//lMn+klXeV4vBzkMkKMBOUX4f8l7vYWlXbdwicFNxEf7nKJMvbOwwgbvg/wkPwPI/O7nef8R4P+v9PUZ8qzABgg2Q/hQ/EGAMwj+6CfWMkMEML3LwT9DcFksCfwfASRYQ0IzzJpQ/EOACoJ/+oo1JQESIAHfEUBsEHgoYYnB6ZHku4aEsMJ0cwxhp4ehyXDRRJpqLwliL2DGItZn5MiRusowqHT+mCIHA+6Du2gk+eGHH7QHCK5B3AmIuSfa8xAsyinIa9+wYUMdcRLRMRFpE+m358+fb1+WSBvMTc2bN9d1V1lBzaE836aeqbYNYblVhs2oQb7yPJQ7WSGgEpjpGCWw80E/U/xFgDMI/uqvwNd22LBhOm4CgjN5UVKpX+/evXVsCdMurHEjcmXPnj3NoZixDWBciSBPXbp0sa83G4gOieRWJkeEOY44DTD+jCSIOWHk/fffl0aNGgnyY+Btr1SpUqIyVsrzzz+vB128BVapUkUSbYPKDioqNbeOawGD0zZt2phH5vlOpm3lypXLk4ALniqILokYF/B+icf4NE8luJN2AmPHjtXByZYvX572sllg5glQQcg8Yz4hAQKIouhlSaV+iBaJjxG8peOtt3r16uZQzG9kqPzggw/kiy++EAyOToEPM6yQP/zwQ+dhHQEznvIR+Apl/vvf/9Zv+ygE+wh0deutt8qmTZu0gpBoG6DQIAw2ZgeQCwTlwDvFLcm0DQqRO3smMnSifESZpILgppzdfbgXP/7449K+fXtR6dez+3A+LS0EuMSQFozBKgSRAGFUdMopp+i3UkzVI5yxEeR0QETDG264QQ9A+CGAJwCiGZYpU0YnbzI/0uYefCN8crNmzbSxEqbPYdWMN3IjePODSyLeNDEtvmLFirjK/fbbb7UrJAYMGEJhej4ZSaZ+7uekI5Syu0yzD9cwpLbGoOsUhJxGzoprr73WeTihbfBGKGt8OwW5LzA7gWWCZAQzQehz1Bv9DQUkkqSrbQh1jb9Xk/wr0rN4LDsE8HuA4GRQEij+JEAFwZ/9ltFad+zYUU/dYs149erVgn0EF8I0NAQ/wnjjxGCM/AwYmPFjAP/mAQMGyJYtW3ROBQyWzoRCeJPYvHmzzJgxQ79JIlwybAWQehmCbI94y8Q6NwIaIW5BPOW2bNlS53yYPXu2Xp5Akqdk0iEnUz9d8Sz9AyUMyxJuBQFRJpHHAvkh3IJ4Eoj1EOnjXI7AII6kVwiRna7BFUGvlixZIugfCPoVCkKk4K3JtM3dVrOPvz+EvabkjgBysED579u3rw6fnrua8MkpEUCoZYo/CSgjMwufdIpaM7aUAmCNGjUqarGnnnqqpaYM7fNqoLFUfgNLJVqyj2GjXbt2lpqSznPMvaPSRVsdOnSwD6tcCZbKZ6D34ylXrZMjVLg1ZswYuwxlGGWpcM2WCqtsH0t2I1b9ki3T3Ac2pq3mmPlWoaAttQRhdi01W2OpXBiWmuWw1Fu+pdZ07XM1a9a0VHItSykKmoWaAdLncI/KYqn7Bv3j/jjLwA1KIbRUBEtdhlpesJS9gKWUN0sN3vaz3Bux2qCCU1kVKlSwb1HKoa77nDlz7GPYSLZtSoHMU46yQbC6deum669mPfKcS2YnE/+/kqmHH++57rrrLDWTY5m/RT+2gXW2LM4gpKReBe9mZGDEtCCSNMUSrBkb2bhxo04/7E6AhPXrL7/8UhCFMJooZUNggR9J4ikXbyoQGPsZwTS5e23anEv0O1b9Ei0rHdcjBDW4mlkEGBIuWrQo6hIA1n4xixDp4+5jzOhs3bpVz8IgGRRme2B5jpkcvJUnIpgReO2116RFixb2bWXU8hP+bqIZTSbaNvytoq/NB7MGMIrDp2nTpvZzuZFdAjBKRcRSJH1jjJHssk/306ggpJuoh8vDf1rzY4pvJC1yC+wJIEjvHEuwXm0E1uMQKAjO8mERDzEKArI6Nm7cWDDoYlkC69sY3KJJPOWaaXJkaHQKDOMSlUTrl2j56breeBqoNxyZNGmSTjt9+umnp6V4NeOglSvYoGDJZ926dbJnzx7tqpbIA3AvbEOQFMv5NzFv3jzBkgiWkCJJIm2DESXSd5sPlkZ27typs31GKpvHMk8ALxf424HNCjKxUvxNgF4M/u6/hGqP9X2s0xuBn7tbTJ6CXbt2uU/l2cePvhFzDwYF91sproEysXv3boGFea1atfR6uJq618aMl19+uSnmsO94ysUbNOTAgQN57sfzEpFk6pdI+em8FvELYBMC5QoKAtb2UxUoG/BZP+qoo/IUhUEYsRCMnUiekzF2YJyIvnYaoeLyQ4cOaW8LxOS/7bbbDishkbZByYTtBcU7BGCHBGNftzeNd2rImiRCgDMIidDy+bXwPsBbvvmo9eHDWoSperzZ400vXsEUNFz24H4Ha3T3B4MO3vLwJgqjJfjm43oMymvXro36mHjKhWU8BNPNRjC9Db/9RCSZ+iVSfjqvRfwCpMHGFD78y03OgGSfgbduKHH4cXcLFIdVq1Zpd0z3uWj7JvYBZgPgUeD8IJYCvC2iLTOku23R6sjj6SewY8cO6devnyg7ECmjlpMo/idABcH/fZjWFhQrVkyU4ZwoozftCYA1frwNYskBHguRpEiRIqIMEnUQHbwZwu0OLoqIymeWMWBhj1kHBOHBD8mCBQv0+jRmHLC+jYEIgoEKgz2ei4iA8ZSLWYg+ffro2REoHG3bttWeFpHqGu1YMvWDwuOWTLo5Op+Ft294kuAtHd4k0QQzK/BOiPRZvHixvg1BkRDroHv37jpW/syZM7XigXTbyKyJe3EuXoF9BFxlcW8kgUIDTxazhOS+Jt62ue/jfm4JIGMqlvYiBfLKbc349KQJqB9mik8JZMrKWrkJWirtsqUGHm1JD4t2FejGpgQvBljZO0UN5pZySbTUQGspwyR9r5r6tlQWN/uyF154wcK9KgaCpQZ1a+nSpdbUqVMtpZRoi2dciH31Fqk/aprSiqdcWMerELu6rmqws1RkQkv5XluodyKSTP3c5cOKXs2YuA9H3I/lARDNi8EUpIwOLaW0WSo+hTkU0YtB/TBoq/5I3856wvMDXgzwiM8PwlIAAC3sSURBVFDBm7QnC/pSDfKWCrVsP8O9EakN8ERRQYrcl9r7SrGy1CyV9rzAQePFYC6It21uLwZzf7q+M/X/K13181I5+L8Mjxm15OWlarEuKRJguuekVavc32imlmH0RSEBEkgvAf7/io+nGoO0oSyWJhGwy2mfFF8JvMqrBGik6NWeYb1IgARIwAcEEPlUzSAIwpBTOfBBhyVQRdogJACLl/qPACII4kcrv0+0WAz+azFrTALZIwA34x49eugkXDAqpgSLAGcQgtWfbI2LAHyxYTCXnzCgS36EeJ4EDifw5JNPCkKbw0iYEjwCVBCC16dskYMAZg44+DuAcJME0kQAUVKVYa/O1AnXZkrwCHCJIXh96ukWITkT/OJzIbl8drT2IshRfssfI0eO1LcjSyWyYBpBGGTci1TKkQTLJjAcwzVwGYWYe6I9E4GKnDJr1iztroowyIhdgeBaCJykPBvsyxJpg7kJkfZQByQEiySmnqm2Dem0lYdLQnE9ItWHxw4ngCRuyotF7rvvvsNP8kggCFBBCEQ3BrsRiMZn4il4saWp1K937946IiKiIuKDgbhBgwZ5jsXKK4BokyYvg5sN0jQj2qBbEKjKPM/9jUA3RpC9s06dOjo2BeJXILPn+PHjdcwKDLowSoMk2gYTSAkxHGDgFk2SaRsiPyJktvkgVgQUGwQHc0YRjfZMHo+PAOJY4O9j0KBBWgmN7y5e5TcCXGLwW4+FsL5mIPJq01OpH97A8DGCwQxvvdWrVzeHYn4j+dEHH3ygo1hicHTKxIkTdVhjd9hbBL2Kp3wMrigTKZrxtg/BPpJFIbDSpk2bBJERE20DFBoE1MHsAMJ/o5xzzz3XWXW9nUzboBC5E3UhxDfKHzJkiKj4DIc9hwcSIwCbHoT6huKKiJ6U4BLgDEJw+zbplhUuXPiwaWtk93P+8OLtDqF5H3zwQZ3vHcmSEDnPmcMByXrwNowfbUT7wxS5WxC3vVmzZvo8ps8ROtkZvx9vfi+//LJ+08QghQiNCKWsgjJJGRXOFQOq+fF3lh3Ps53XR9tOpn7usjIZXRFrv9WqVTtsFgHRLOGTjrDGyQp4I7KlUQ5MOVi2wOwElgmSEUTmRJ+j3uhvKCCRJF1tU+nL9bIWkjlRUicAu4MtKvrpM888k3phLMHTBKggeLp7vFs5DBKDBw8WhGZesmSJ4G0VA5JzPbJly5Y6ZDKmdjHlC2vnKVOm5GlU+/btdVphTFniTRIph2ErYJIDIQEU3jKxzo0MgHClgnIA5WTAgAH6h6pXr16CQXjEiBF22fE82744xkYy9YtRXNpPQVlCQB/3MgOCZyGRkYqGeNgzkfoZ7p+RPiY7Jm7CII4wy1AC0zW4rl+/Xv+9oH8g6FcoCAi245Zk2uYuw+xjQEM6aEpqBJC3A54LyNgYadYntdJ5t+cIpBiJkbfnkECmQsGq2QA7DK5p3t13322p6WSzq0MhO/dxQrk66TDLCJWrsizqEL9jxoyx70E437PPPts6//zz7WORNlSmR6tDhw72KYTuVfkh9L4awCzUTykF9nlsqJwNlprq1sdSeXaeQqPsxKpflFviPow2mLa6b4oWflnNcljqLd9SiZvsWxAyWeXTiBh+GSFxwTDSx1kGCkP4ZWUXoftSLS9Ybdq0sZTyZqnB236WeyNWG1S8fkslCbNvQZhs1H3OnDn2MWyY8MuJts0dflnle7AQ/lr98Fpq1iPPM/LbydT/r/ye6+XzrVu31uHS8X+cEnwCnEHwnMrmnwphLdopeLuHtTzcn5BsCYLskEYwVe1cpjDH3d8qX4NEC1y0ceNG2b9/vzY6c96HuuC533//fUrPdpYZbTtW/aLdk8njMGxE+80sAlJgw/gw2hLABRdcIJhFiPRxp+vGjM7WrVv1DBCWmdSArj0h0Nd4K09EMCOADJQtWrSwb8MyEWwNomV3TLRtSPSFvzPzwazB2LFj9SeWsaddIW5EJYDMoVgeQiI3pVxGvY4ngkOACkJw+jLflkybNs3+4cQPaKqeATA0cwpsFyDIIGimqt0/JO57sPTQuHFjwaALWwUsXWBwiyYmAyBsE8wggG+kFoZAQYj32dGe4TyeaP2c92ZzG+2Hp4F6pxGVMEfHxj/99NPTUgU146AVO0wrY8ln3bp1OnV3p06dEiof98I2RM2E5Ok7pBbHkgiWkCJJIm2DESVSd5sPlkYwLa7efCMVzWNxEsDfFfobxq0wUKWEgwC9GMLRz7qVWMt3unrBpz2SYMB1C9423QJ3NaeYa5D+ee/evfoUlAWn7N69297FNizM4e6G9XA1da+NDpG+OZrAOBKCwcb9tovjMKrDGzQk1rP1Bfn8k0z98ikyY6cRvwCW5VCuoCBgbT9VwaCgloVEZX3MUxQGYcRCMHYieU7G2MHbJ/raaYSKyw8dOqS9LZAqHKme3ZJI26BkwvaCkl4CSPWOFO2wSYn0+5Dep7E0rxDgDIJXeiIL9ShRooSemsfbNz5qLTjiU2F4qFLy2ucwNYw3abe4j61atUoP8HB7g3U6BFO+RlDOwoULza5+y8Nz+vbtK/DNh0cCBuW1a9fa17g3MLWN67744guBlbv7g8Esnme7y420j7fQROsXqZxsHFMpsrXLGabwMRVsMhEm+2y8dUPZgjGoW6A4oK/hjhmvmNgHmA1AoCznB66S8LaItsyQ7rbFW2de9/8JQNHGrA9mYeB5QgkPAc4ghKev426pcZvDmi2WCDBIYJrZLViPhifBHXfcoQds+JnjbQ/uirCex0wAYrQrw0QpVaqU9nqAy5kRXIO3EUyNK6NE7cUAZQEzA1jfxkCE8xiooGjArgGzHsogUQfnwbIEpjzh0ocfMAxYeEuN59mmDrG+k60f6usUeFjA599EM3SeS+c23r6VMal+S4dbaTTBDz7eBCMJeCujUN1fmEru3r27YFmnYcOGuh+wRKAMT/X9xuYhUjnuY7gW/vNwhY0kUGhQdzwrkrdBvG2LVDaPpUbg6aefFih48F6ghIvA4b/64Wo/WxuBAIyQMDhiOvjqq6/W7kz4gXYPcDBgw3Q+DBEx5YxZiaFDh9olIuoeZgbq16+vy8EPv7LQt5MnmfgFCMhTRhmrYY0bCgUG1A0bNtgGjnCzQzwCGOJh1gKDLdwPsSaKdfbrrrtOMDsC5cJIfs8218X6TrZ+scrM5DmEJ8YMSn5rxDD0hPIW6aO8H+wqwm0UH7ixov9xPVxQoSzCbiCaEaRdgGMDERPx9wRFMZIorwVdLqayI0m8bYt0L48lT+Crr77SLwhwJY62JJl86bzT6wSOUG9phzsge73WrJ8mYKaRYeCVbcHUPgboSMGPsl0XPo8EMkEgl/+/MtGeZMrEjA9iV2BJCQbElHAR4BJDuPqbrSUBEiCBuAggURcMR6dOnUrlIC5iwbuISwzB61O2KB8C8JjAWnt+n2ixGPIpnqdJwPcEsJyIGcJGjRrpJULfN4gNSIoAZxCSwsab/Dx41q5d27aDiNWTBQrwv0csPjwXXALDhw/XdkDu0OjBbTFbFokAfwEjUeGxQBPAzAEH/0B3MRuXAgG4GsNYuHPnzjp7ZwpF8VafE+ASg887kNUnARIggXQS6NGjh1ag8U0JNwHOIIS7/9l6EiABErAJIJ064lzA9dhELbVPciN0BDiDELouZ4NJgARIIDIBGCYiVHU6QnVHfgKP+okAZxD81FusKwmQAAlkiMDEiRNl7ty5Op9HpMipGXosi/UwASoIHu6ceKqGkLkmoEs81/MaEkiGAPJouJM2JVOOn+7B/y2E8g6DIJNmt27ddKRThNqmkAAIUEHw8d8BQt9SSCDTBJAYa+vWrVKnTh0dOyLTz/NK+VAOwvJ/rH///jpRmjNcuVf6gfXIHQGGWs4dez6ZBHxBYNOmTTr7IpJ2IQcGJVgEkOcEmV2RbwH5UCgkYAhQQTAk+E0CJBCVQJcuXbRlu0mzHfVCnvAdASxRIrU50qwjlTqFBAwBKgiGBL9JgASiEti3b5+UL19ekALcmbEz6g084QsC8+fP11k23333XZ3S2xeVZiWzRoAKQtZQ80Ek4G8C8I1v06aNLF++3E7F7e8Whbv2MDytUqWKTsE9ffr0cMNg6yMSoIIQEQsPkgAJuAn8+eef2mivUKFCgkx/FH8TQL4FxD1YvXq1nh3yd2tY+0wQoIKQCaoskwQCSmDRokVSs2ZNmTx5stx0000BbWXwm7Vnzx6dZ6Fly5by/PPPB7/BbGFSBKggJIWNN5FAeAkgyh4C6qxfv16OO+648ILwccsfeOABmTRpks7YWKxYMR+3hFXPJAGGWs4kXZZNAgEk8Nxzz8lPP/0kcHuk+I/AunXrZNSoUYKYB1QO/Nd/2awxZxCySZvPIoGAEMDg8tRTT8nnn38uZ555ZkBaFY5m1KtXT77//ntZunSpMKRyOPo82VZSQUiWHO8jgRAT+PXXX3XwpKpVq8r48eNDTMJfTX/zzTfl5ptvljlz5sgVV1zhr8qztlknQAUh68j5QBIIBoG3335bmjRpogebWrVqBaNRAW7FwYMH5bzzzpMaNWrIa6+9FuCWsmnpIkAFIV0kWQ4JhJDAddddJzt37pRPP/00dMmc/NbdWBLq16+fXhY644wz/FZ91jcHBGikmAPofCQJBIXAoEGDZM2aNToMc1DaFMR2bN++XZCQ6dFHHxUqB0Hs4cy0iTMImeHKUkkgNAQ6duwor7/+uiBPQ4kSJULTbj819Pbbb5fFixfrfAsFCxb0U9VZ1xwS4AxCDuHz0SQQBALIAghr+CeffDIIzQlcGxYuXCgTJkzQAZGoHASuezPaIM4gZBQvCyeBcBCAX/3999+vswJWqlQpHI32QSsRHrt69epSpEgRmTlzpg9qzCp6iQAVBC/1ButCAj4lgIHosssuk6JFi8pHH33k01YEr9qjR4+W9u3b6wRbF1xwQfAayBZllAAVhIziZeEkEB4CCxYs0L71cH9s3LhxeBru0Zbu3btXJ2Fq1qyZDBkyxKO1ZLW8TIAKgpd7h3UjAZ8RuPXWW7XL49q1a4Xr3bntvM6dO8u4ceO08WjJkiVzWxk+3ZcEaKToy25jpUnAmwSQp2HHjh0yePBgb1YwJLVCCOxhw4bpfAtUDkLS6RloJmcQMgCVRZJAmAn06dNHnn32WZ0p8JRTTgkzipy1vX79+rJt2zZtNFqgQIGc1YMP9jcBKgj+7j/WngQ8R+CXX37RIX0R6x9T3JTsEnjnnXfkhhtukI8//lhq166d3YfzaYEiQAUhUN3JxpCANwhMnjxZmjdvLnPnzpW///3v3qhUCGqBJFrwVqhcubKOfRCCJrOJGSRABSGDcFk0CYSZwFVXXSWwpEeeBqYVzs5fAsIpY4ln3bp1UqZMmew8lE8JLAEaKQa2a9kwEsgtgaFDh8qqVau4zJClboBxKJIxdevWjcpBlpgH/TFUEILew2wfCeSIwPnnny/33nuvPPLII/LTTz/FVYupU6dKuXLlJFOGdeecc47OGxFXZXx20cMPP6wDVWGJgQx91nkerS4VBI92DKtFAkEggBTDv//+uzz99NMxm/Pll1/q4Erdu3fXbpIxL07hJGIzHHPMMSmU4M1bly1bJq+99pqUKlVKevfuTYbe7Cbf1YoKgu+6jBUmAf8QQHZHJHNCJL8NGzZErXjPnj2lRo0agoEOeQPSJRMnTpS6devqpQ6UCeUAHxjzDRw4UGAngW0/i2VZ0qFDB0G8g5tuuokM/dyZHqs7HWQ91iGsDgkEjUC7du0EOQEeeughee+99yI2b+zYsXLsscdGPJfKwSuvvFJHEmzUqJFce+21cvDgQZkxY4Z06dJFu2L26NFDjj766FQekfN7X331VVm6dKkga+Oll16a9vqEgWHaoQWkQHoxBKQj2QwS8DKBWbNmyTXXXCPvv/++NGjQIGZVTzvtNPnuu+/00kTMCxM4eejQIWnTpo02mDzhhBPkzTff1HkjEijCk5fu27dP51u48cYbZfjw4XYdydBGwY0UCHCJIQV4vJUESCA+AldffbU0bdpUOnbsKBissyU7d+7Ulv3nnXeeNnysWLGi3HbbbdK6dWtt8zB9+nTBFL1f5cknn9SzInBtzJQEnWGmuAWhXCoIQehFtoEEfEBg0KBB8u233wrcH7Mls2fPFsxevPXWW4JlDBgpYqkByaQQZRBugX61QYBh5wsvvKDjHmBWJFMSZIaZYhaUcrnEEJSeZDtIwAcEYIxoDBZLly4dscaZmB43D4LrJaz8b775ZnPIt9/XX3+9bN68WVasWHGYHQUZ+rZbPVVxziB4qjtYGRIINgEYBcKz4bHHHstJQ7G8AUNFvwsMLWHPgVmZbBtZBoWh3/8GslF/ziBkgzKfQQIkYBP4z3/+I3feeacsWrQootV9Jt9+7Ur4eOO3337T+RYwG/LGG29EbAkZRsTCgwkS4AxCgsB4OQmQQGoEYCSIBE6dOnXytYFgahSSvxt2B1u2bJFnnnkm+UJ4JwnEQYAKQhyQeAkJkEB6CQwePFiWLFkS2LDH6aX1V2nwKIDnQteuXeXcc8/96wS3SCADBKggZAAqiyQBEohNAOmI4WqIgQ4ZHxMRvD0fddRRcsQRR8jy5cvtW6Mdty8IwAZCURcuXFjnt0ilOdFYRTueyrN4r38JUEHwb9+x5iTgawLIzwCDQaQoRoRFDPj4bN++Xf744w97f8yYMRHbiWsjGehFOx6xEB8dhDL0yiuvyLPPPiuFChU6rOZkeBgSHkiRAI0UUwTI20mABJInACt8ZHtcs2aNlC1bNvmCAn4ngjkhbgMUp/nz52vlKeBNZvM8QIAKggc6gVUggbASQKZHLDdgPR3BjCiRCSBTY6tWreSTTz6RatWqRb6IR0kgzQSoIKQZKIsjARJIjMBHH32koxtOmzZN6tWrl9jNIbj6wIEDghDRYPPiiy+GoMVsolcIUEHwSk+wHiQQYgKNGzeWTZs2ycqVKyPaFYQYjTz66KM6PDXSZZ988slhRsG2Z5kAjRSzDJyPIwESOJwAbBG++uorGTFixOEnQ3wETAYOHCi9evWichDiv4NcNZ0zCLkiz+eSAAnkIQBjRUyh4035xBNPzHMurDtNmjSR9evXy6pVqzizEtY/ghy2mwpCDuHz0SRAAn8R+Pnnn6V8+fLSqFEjGTly5F8nQrqFLJTXXHONTJ06VerXrx9SCmx2LglQQcglfT6bBEggD4Fx48bJXXfdJYsXL5aqVavmORemHXh3XHLJJVKmTBl55513wtR0ttVDBKggeKgzWBUSCDsB+PvXqlVL52iYN29eaP39kW8BUSZXr14t5cqVC/ufBdufIwI0UswReD6WBEjgcAKIgog8Dcj0OGnSpMMvCMGR3bt3S58+faRz585UDkLQ315uImcQvNw7rBsJhJQAlhkQHwEGepHCCgcZS9u2beXtt9+WL774Qo4//vggN5Vt8zgBziB4vINYPRIIIwHkZ9i3b58MGDAgVM1fsWKFIPcE2k3lIFRd78nGcgbBk93CSpEACSAp0RNPPCHr1q3TxnphIHLllVcKvDmQCvvII/n+FoY+93IbqSB4uXdYNxIIMYFff/1VLrzwQrngggtk8uTJgSGBhEtIV+2WiRMnym233abtLy677DL3ae6TQNYJUEXNOnI+kARIIB4Cf/vb3+T555+XKVOmyIwZM/LcsmvXLnnqqafyHPPLDlI233LLLbJ161a7yr/88ot069ZNJ2SicmBj4UaOCVBByHEH8PEkQALRCTRs2FAaNGigLfoRGwCfoUOHytlnny2PP/64/PTTT9Fv9uiZzz77TCs9cF/EEgqSMcHmAt4Lffv29WitWa0wEuASQxh7nW0mAR8RQBKnSpUqyX333SfTp0/X1v1//vmnbsGcOXN03AQfNUcHgFq2bJmucoECBaRYsWKyd+9e7dqIWQQKCXiFAGcQvNITrAcJkEBEAgULFpQKFSoIggdt3LhRjHJw9NFHy/LlyyPe49WDsD9Yu3atXT3MiGDm4LfffpMJEyboCJL2SW6QQI4JUEHIcQfw8SRAApEJYOodWQzPOecc7cmAqzDAGkHURb8pCIhtcPDgQdME/Q2FB21Zs2aNXH755dKiRQvZuXNnnmu4QwK5IEAFIRfU+UwSIIGYBGCYCMXg6aefFngz4A3bLXj7hjugnwT2B9HcF9EeKAqvv/66VKxYUTZv3uynprGuASRABSGAncomkYDfCZxyyily6NChfHMxwD7B/Ubu5bZDQYDdQTSB+yO8NxAs6ayzzop2GY+TQFYIUEHICmY+hARIIBECNWrUEBjyIZshbA2iCZYckNDIL4IZD8yIRBK0s3jx4oIkVU2aNIl0CY+RQFYJUEHIKm4+jARIIF4CeING2mcoC9HeunEcb+V+ECwfRKsr2gHXzaVLl0q1atX80BzWMQQEqCCEoJPZRBLwKwG8USNp09133x1xuQHZH6MNul5rMwIjIb+EW7CsgBTXUIbOPPNM92nuk0DOCFBByBl6PpgESCAeAni7HjlypAwaNEgrCVAKjMB48ZNPPjG7nv6GIuOsOyqLfWSunDZtmhQtWtTT9WflwkeACkL4+pwtJgFfEujYsaPOyQAjPueSA5I5wQPA6wIFwdhTQDGAN0O/fv1k9OjR9nGvt4H1CxcBKgjh6m+2lgR8TeCmm24SRE/E27YZbGH0t379es+369NPP9XumlhSOOaYY+Stt97S+Rc8X3FWMLQEqCCEtuvZcBLwJwEkM4IxH4wYzUyCH+wQ4JUBQ8WSJUvKwoULpXHjxv7sANY6NASYiyE0Xc2GkkByBBYtWiTffPNNcjdn8C5EWkS2R0QgRFKnli1bZvBpqRWNpFJt2rSR008/XXr06CElSpRIrcAM3d2sWbMMlcxi/UiACoIfe411JoEsEkBqYkQ2pASfAGY4KCRgCHCJwZDgNwmQQFQCN998s54exwDixc+LL77oyXoZVoj4aEIpm2Ne+p44cWLUvueJ8BKIHvMzvEzYchIgAZ8RuPfeez1dY+SVoJCA3whwBsFvPcb6kgAJkAAJkEAWCFBByAJkPoIESIAESIAE/EaACoLfeoz1JQESIAESIIEsEKCCkAXIfAQJkEBsAjfeeKMdRhlRBvE58cQT5ZprrtHZDWPfnfmzd95552H1M/U03wgHTSGBIBGgkWKQepNtIQEfEyhXrpy8/vrrdgv+97//yYgRI+TKK6/UCZuuuuoq+1yqG8OGDRNENnzllVfiKqp3795y//3329fC9fPCCy+Unj172seQjZFCAkEiQAUhSL3JtpCAjwkce+yxUrVq1TwtqFevnpx77rkyZMgQSaeCgKiGiQi8EJyeCAiVjBmO6tWrJ1IMryUBXxHgEoOvuouVJYFwEUBipkqVKsnXX39tN/zQoUPStWtXHZUQ55EiuXv37jrPgblo3rx5OoVysWLFpEiRIlKzZk2ZNWuWPo0ZiZdfflleffVVvWywYsUKc1tK34g2iUiEJ510khQsWFDKly8vmKlwyvbt2+X666+X4447Tk499VSdofKxxx7T15rrYtXdXMNvEsgGASoI2aDMZ5AACSRNYMuWLVK6dGn7/nbt2slLL70kw4cP14oD0kBj++GHH9bX7N+/Xw/CF198saxatUrWrl2rlQWEY/7hhx9k+vTpcumllwrsCn755Re56KKL7LJT2Wjfvr1s3rxZZsyYIQiMhNgMWJZ499137WLxTNRn5syZOk31kiVLBEGKTOKp/OpuF8QNEsgGARXNi0ICJEACUQmoKIoWPpmUG264wVIDdZ5HKBsEq1u3boj9a73xxhv63Pfff2+pbIhW//7981yrZhSsQoUKWWp2wVq5cqW+Z+7cufY1f/zxh7V69Wp9HgdVwierVatW9vlEN9RyQ1z3n3HGGVaHDh108WqGQddLzVzYj1P5JKwTTjjBOv/88/WxeOpu35zGDaWk6LqlsUgWFQACnEHIhhbGZ5AACeRLQA2OeTwFMGswduxY/WnatKm+HzMCarCXyy+/PE951apVE7x9b9y4UU/Xw+Dx9ttvl759+8ry5ct1uViqwJJENgXLCJi1gHz++ef6u3Llyvob/8DuolatWvY+liW8Une7UtwILQEqCKHtejacBLxFAAMj0jabD+wOdu7cKa1bt7YrunfvXr1dvHhx+xg2YGsA2bdvn8CAcP78+XLrrbfK6NGjpUqVKlKmTBkZP368viZT/8ArAimcoRRg4MeyATJhGvn555/1ZuHChc0h/Q1jRyO5qrt5Pr9JwEmACoKTBrdJgARyRgCDKuwGzAepkRFjwClFixbVu3v27HEelt27d+t9cx6D7rPPPqttAtavXy9169bVNgdQPjIheD48Lo488kj5+OOP5ccff9RGk04vB7QPgjTVTtm1a5dzV3tHZLPueR7OHRJwEKCC4IDBTRIgAW8TgPKAN/OFCxfmqegnn3wiUA7Kli0r3377rcyePds+j2n7UaNGSYECBbTRon0ijRtQPKC0YEkDdcBMAJQGGCQawXHImjVrzCE5ePCgKFsJez8Xdbcfzg0ScBGgguACwl0SIAHvEsDSwl133SXPPfecTJ06Vb777juZMGGCXkro1KmTVgLWrVunZwzgYrh161aBF8QzzzyjG2Xe6FEObB5gF+CejUim9XC1xGwH6rJjxw5ZsGCBtGjRQmBvgOcrezUdRwEKTq9evQRxGOAWec8994gyUrQfGU/d7Yu5QQKZJhAAQ0s2gQRIIIMEcuXFEK1J8FSA18Ipp5xiqVkB66yzzrLUm7v1559/2reoCImWGoy1Z8Pxxx9vKaNGSykU9nlslyxZUn8+/PBD+3i8G5G8GF544QVL2R9YKgaCft7SpUv1M5V9hKUMJHXRarnDUjEZLGUsaSm7COvFF1+0lNumpewk7EfnV3f7wjRu0IshjTADVNQRaEumlRCWTwIk4F8CCCsMmTx5sn8b4ZGab9iwQS+ROMMywz4CyyO55Dtp0iRp3ry5nunwCCpWwwMEGGrZA53AKpAACYSDwEMPPSQwmhw3bpycdtpp8t577+k8E/imkIDXCNAGwWs9wvqQAAlkjQA8Dkw2xljfJpZBqhWDYoCwz02aNJGKFStq40mEfG7QoEGqRfN+Ekg7Ac4gpB0pCyQBEvALgdq1a+fJ4RCt3vCASIeUKFFC54BIR1ksgwQyTSA9f/WZriXLJwESIIEMEMCsQboG/wxUj0WSQE4JcIkhp/j5cBIgARIgARLwJgEqCN7sF9aKBEiABEiABHJKgApCTvHz4SRAAiRAAiTgTQJUELzZL6wVCZAACZAACeSUAI0Uc4qfDycBfxDYtm2bIJgOJZgEnFkng9lCtioZAlQQkqHGe0ggZASQDAmR9igkQALhIcAlhvD0NVtKAkkTUPkYdBheRGbnJ3gMVC6GpP82eGNwCVBBCG7fsmUkQAIkQAIkkDQBKghJo+ONJEACJEACJBBcAlQQgtu3bBkJkAAJkAAJJE2ACkLS6HgjCZAACZAACQSXABWE4PYtW0YCJJAkgRNOOEGeeuqpmHfff//9UqlSpZjXxDr52GOPScGCBe1LbrzxRp1ZcsqUKfYxs/Hdd9/pc8g+CbnzzjvzzUI5cuRIfS3/IYFkCdDNMVlyvI8ESMAXBIYNGyaffvqpvPLKK3HXd/To0VK+fPm4r0/XhVAYunbtKo0aNZJjjjkmarG9e/cWKChGbrnlFrnwwgulZ8+e5pCcffbZ9jY3SCAZAlQQkqHGe0iABHxDYNmyZQnXtUmTJgnfk44bMIswZ84cGThwoHTv3j1qkeecc47gYwTKxIknnijVq1c3h/hNAikT4BJDyghZAAmQQDIEjj/+eD0QPvjgg1KyZEkpVKiQYGDetWuXXdyhQ4f0G/Xpp58uf/vb3+TMM8/UA+dvv/1mXzNv3jypVauWFCtWTIoUKSI1a9aUWbNm6fNXXnmlvPzyy/Lqq6/qKfkVK1bY98XacC8xfPvtt9KgQQM59thj5aSTThIsD+QnjzzySMKppNFGLG3069dPsKxAIYFcEqCCkEv6fDYJhJjA0UcfLYMHD9YD+5IlSwTBeubOnSv33XefTaVdu3by0ksvyfDhw+Xrr7+WQYMG6e2HH35YX7N//365/vrr5eKLL5ZVq1bJ2rVrtbLQsGFD+eGHH2T69Oly6aWX6jX7X375RS666CK77EQ2WrZsKZ9//rnMnj1bL1ccPHhQItkKJFJmpGv/+OMP+cc//iFly5aVRx99NNIlPEYCWSNABSFrqPkgEiABJ4EjjjhCSpUqJX369NHT5RjoO3XqJP/9738FAz8G+HHjxgmUAazJn3zyydK0aVOtQMBG4Ndff5Uvv/xS9u7dK1iDP+OMM/Tn6aef1oM4ZijwRo7nHHXUUdogENuJyvbt22XmzJl61gBT+HjOs88+q2c8YpXVv39/+f3332NdEvHckUceqRUh2EwsX7484jU8SALZIEAFIRuU+QwSIIGIBK644oo8x/GGj0EVAz9mBPBGffnll+e5plq1alqB2LhxozYkLFeunNx+++3St29fPaBCCYB3AZSDdAhmDiAwAjSCZ1StWtXspv0bSyawR+jcuXPay2aBJBAvASoI8ZLidSRAAnERmDZtWh4XPEyZR5OiRYvmOVW4cGG9f+DAAT0zgJ3ixYvnuQa2BpB9+/ZpS//58+fLrbfeKphVqFKlipQpU0bGjx+f555UdvAcCGwknOKuu/NcOrYxS7F48eKMLGWko34sI/gE6MUQ/D5mC0kgqwSw5o+1eiNYGogmP/74Y55TP//8s96HsSFsBiB79uzR3+af3bt3600zQMN6H4MpPhs2bJDnnntO2xxUrFhRKleubG5L+tsoBlBanGLq4TyWzm24KcKAE0sssM2gkEC2CXAGIdvE+TwSCDiBEiVKCLwHzKdChQpRW4z4BE7BsgJc9uDCB8NDGDIuXLjQeYkg9TSUAxjywbvAqYwgdsGoUaO09wDKSoeYeAgrV660i8PSh7te9sk0bsBbAvYYI0aMSGOpLIoE4iNABSE+TryKBEggAwQ2b94sAwYMEBgCYqAfMmSIILU0AgZhaeGuu+7SMwJTp07Vbn8TJkzQSwkwZixQoICsW7dO6tatKwiGtHXrVtmyZYs888wzuqYmJgDKweAOWwL3bEQ8TYJrJewgYEyJOsJTom3btvnaOCTj5uiuDwwt8VxwoZBAtglQQcg2cT6PBEjAJnDvvffKtm3btAEgvBgw6zB06FD7/L/+9S9p3bq14DrEQujRo4d2/3viiSf0NXXq1JExY8boz/nnn6/dGN99913tCWHe/DFN/8033wgMIt0zFvaD8tmATQNmLOrXry9XX321lC5dWlq1aiXOeAz5FJH06XvuuYdREZOmxxtTIXCEpSSVAngvCZBAsAnAhRAyefLktDYUwYgwExBP0KG0PpiFHUZg0qRJ0rx5c+FwcBiaUB/gDEKou5+NJwESIAESIIHIBKggRObCoyRAAgEj8LHKhIj4Bfl9EKCJQgIkIEI3R/4VkAAJ5IRAtgfi2rVrx2UzAONHCgmQABUE/g2QAAmEhABmDjj4h6Sz2cy0EOASQ1owshASIAESIAESCBYBKgjB6k+2hgRIIA4C7nTOkW65//77dU6HSOfiOQbvDMRzMILcCpjFiJQFEqmdcQ52EpA777wzX1uJkSNH6mv5DwlkigAX2zJFluWSAAnEJIDgRohLgKyF2RbkbTBxErL5bCgMXbt21dkpETEymvTu3VugoBiBqymSRfXs2dMcYmwEmwQ3MkWACkKmyLJcEiCBmASWLVsW83wmTzZp0iSTxUctG7MIc+bMkYEDB0r37t2jXodQ0/gYgTKBnBMmOqQ5zm8SyCQBLjFkki7LJgESiEgAERNffvllefXVV/VU+ooVK3S0w2bNmslJJ52kp+bxho9ZBqcgJDMiLh533HFy6qmnyqBBg3SgpURnA9xLDMjp0KBBAzn22GP18+MJ3pRMKGWkoH7qqaekX79+OnS0s23cJgGvEaCC4LUeYX1IIAQEpk+fLsj6iLV2ZG286KKLpH379oLcDDNmzJBNmzbp8MqYZkfoZCO4HrkQZs6cqZM2LVmyRCZOnKiTOplrkvlu2bKlztWAXAtY9jh48GBEW4FkynbegyRPSH+NsM2PPvqo8xS3ScBzBKggeK5LWCESCD4BvEnDKO+oo47SswXYhiKAwRlr7aeddpp06dJFzjjjDPnwww81EORsgBEf1ueRPAm5GV566SVxp4xOlB5mJaBwYNYAU/h4JlJHmzTP0crr37+//P7779FORz1+5JFH6pkP2F4sX7486nU8QQK5JkAFIdc9wOeTAAlEJYBlBBNQCdkYIZUrV7avx5JArVq17P1kNky5UEyMQGGpWrWq2U37N+oMe4TOnTunvWwWSALpIkAFIV0kWQ4JkIAmMG3atDwuephSj0cwe9C4cWNtW4CB/+ijj5ZFixbZt/788896u3DhwvYxbMB4LxXZt2+fvt09Y1C0aNFUis33XsxSLF68OCNLGfk+nBeQQBwE6MUQByReQgIkED8B2BZgLd/IySefbDajfu/evVvq1aunZwOwjIBpfljuYynBCJQGyIEDB8wh/b1r1648+4nuGMXAXS7qlEk5++yzBamoH374YZk7d24mH8WySSApApxBSAobbyIBEohGoESJEgIvBfOpUKFCtEvt45999pns2bNH+vbtqw34oBxggIZBohEY9kHWrFljDmljwlQHV+MBsXLlSrtcGBMuXLjQ3s/UBuwe9u/fLyNGjMjUI1guCSRNgApC0uh4IwmQQCoEihcvLhiUYQNw/PHH62WJCRMmyI4dO2TBggXSokULbW+wZcsWsSxLxwW4+OKLpVevXoIYCt98843cc889ApfFVOTMM8/UMxV9+vTRMx9QStq2bSswpIwlybg5ustDu/HcIUOGuE9xnwRyToAKQs67gBUggXASwPQ6BvkrrrhCzx5gkIRXQpkyZXS0QQycGIQ3bNigPRtACQpEyZIlpUaNGno5Ahka8XGGNE6G5vjx4/XMRf369eXqq6+W0qVLS6tWreLK/pjM85z3QMnBcgOFBLxG4AilmVteqxTrQwIk4B0CCPMLmTx5cs4rBWUBxovOAbVu3boCg0Iv1C/ngJKswKRJk6R58+Z6pibJInhbAAnQSDGAncomkUBQCTz00EOyfv16GTdunI6V8N5778lHH30k+KaQAAmklwCXGNLLk6WRAAlkkAAUg5o1awpyKVSsWFFGjRqlwzUjTDK8HxC/IL+PiauQwWqyaBIIBAHOIASiG9kIEggHAXhIIH9DJIEtwm+//RbpVJ5jBQrwZy8PEO6QQBQC/J8SBQwPkwAJ+IsAZg44+Purz1hbbxPgEoO3+4e1IwESIAESIIGcEKCCkBPsfCgJkAAJkAAJeJsAFQRv9w9rRwIkQAIkQAI5IUAFISfY+VASIAESIAES8DYBGil6u39YOxLwBIEpU6Zo90FPVIaVIAESyAoBRlLMCmY+hAT8SwAplxESmRJ8As2aNQt+I9nCuAlQQYgbFS8kARIgARIggfAQoA1CePqaLSUBEiABEiCBuAlQQYgbFS8kARIgARIggfAQoIIQnr5mS0mABEiABEggbgLwYsh9Dte4q8sLSYAESIAESIAEskHg/wE0wMcdeyYCGQAAAABJRU5ErkJggg==;" vertex="1" parent="1">
          <mxGeometry x="-30" y="60" width="520" height="527" as="geometry" />
        </mxCell>
      </root>
    </mxGraphModel>
  </diagram>
</mxfile>
